<?xml version="1.0" standalone="no"?> <!DOCTYPE svg PUBLIC "-//W3C//DTD SVG 1.0//EN" "http://www.w3.org/TR/2001/REC-SVG-20010904/DTD/svg10.dtd" > <svg xmlns="http://www.w3.org/2000/svg" width="100%" height="100%">
<defs >
<font horiz-adv-x="537" ><font-face
    font-family="RecordTypeX"
    units-per-em="1000"
    panose-1="2 11 5 3 4 2 3 2 2 3"
    ascent="872"
    descent="-248"
    alphabetic="0" />
<missing-glyph horiz-adv-x="430" d="M353 -180H80V680H353V-180ZM286 -121V-92H199L259 -52H286V-23H144V-52H204L144 -92V-121H286ZM286 -4V93H144V-4H286ZM286 145V242H200V194H230V214H258V173H172V242H144V145H286ZM286 261V347H258V290H144V261H286ZM230
310V370H286V399H144V370H200V339H144V310H230ZM286 422V451H230V511H144V422H286ZM286 534V562H230V594H286V622H144V594H200V562H144V534H286ZM172 65H258V25H172V65ZM172 482H200V451H172V482Z" />
<glyph unicode=" " glyph-name="space" horiz-adv-x="232" />
<glyph unicode="!" glyph-name="exclam" horiz-adv-x="272" d="M90 624H182L171 178H101L90 624ZM90 92H182V0H90V92Z" />
<glyph unicode="&quot;" glyph-name="quotedbl" horiz-adv-x="369" d="M68 624H157L152 397H73L68 624ZM212 624H301L296 397H217L212 624Z" />
<glyph unicode="#" glyph-name="numbersign" horiz-adv-x="580" d="M129 151H36V224H137L157 388H36V461H165L182 605H255L238 461H372L389 605H462L445 461H538V388H437L417 224H538V151H409L392 9H319L336 151H202L185 9H112L129 151ZM344 224L364 388H230L210
224H344Z" />
<glyph unicode="$" glyph-name="dollar" horiz-adv-x="580" d="M184 18T130 47T39 126L90 177Q132 128 183 105T300 81Q367 81 403 104T439 168Q439 200 426 219T382 251T289 276Q212 291 168 307T97 356T70 449Q70 512 120 555T250 606V702H335V605Q390 598 433
574T512 505L458 459Q416 504 378 519T285 534Q221 534 186 512T150 449Q150 418 165 401T211 375T306 353Q376 339 421 320T493 264T520 166Q520 100 471 59T335 9V-100H250V10Q184 18 130 47Z" />
<glyph unicode="%" glyph-name="percent" horiz-adv-x="947" d="M134 499T90 552T45 691Q45 773 91 826T222 880Q309 880 353 828T398 691Q398 607 352 553T222 499Q134 499 90 552ZM116 631T142 597T222 563Q275 563 301 597T327 691Q327 750 301 783T222 816Q168
816 142 783T116 691Q116 631 142 597ZM638 -7T594 46T549 185Q549 267 595 320T726 374Q813 374 857 322T902 185Q902 101 856 47T726 -7Q638 -7 594 46ZM620 125T646 91T726 57Q779 57 805 91T831 185Q831 244 805 277T726 310Q672 310 646 277T620 185Q620 125
646 91ZM207 -17L672 663L733 624L268 -56L207 -17Z" />
<glyph unicode="&amp;" glyph-name="ampersand" horiz-adv-x="617" d="M405 26T356 8T256 -11Q157 -11 98 38T39 170Q39 231 74 274T182 348Q148 386 133 416T118 484Q118 522 137 556T195 612T289 634Q341 634 378 615T433 564T451 497Q451 443 413 400T302 330L449
174Q489 230 512 310L578 293Q550 189 499 121L585 30L529 -21L448 64Q405 26 356 8ZM123 127T161 96T260 64Q336 64 399 117L227 299Q174 277 149 248T123 178Q123 127 161 96ZM199 459T212 436T257 378Q319 403 345 429T371 493Q371 522 350 542T288 562Q242
562 221 538T199 484Q199 459 212 436Z" />
<glyph unicode="&apos;" glyph-name="quotesingle" horiz-adv-x="225" d="M68 624H157L152 397H73L68 624Z" />
<glyph unicode="(" glyph-name="parenleft" horiz-adv-x="341" d="M212 -126T171 -58T105 94T80 260Q80 343 105 426T171 577T259 688L321 646Q248 569 207 475T165 260Q165 139 206 45T321 -126L259 -168Q212 -126 171 -58Z" />
<glyph unicode=")" glyph-name="parenright" horiz-adv-x="341" d="M93 -49T134 45T176 260Q176 381 135 475T20 646L82 688Q129 646 170 578T236 426T261 260Q261 177 236 94T170 -57T82 -168L20 -126Q93 -49 134 45Z" />
<glyph unicode="*" glyph-name="asterisk" horiz-adv-x="420" d="M179 409L71 341L35 404L148 463L35 522L71 585L179 517L174 644H246L241 517L349 585L385 522L272 463L385 404L349 341L241 409L246 282H174L179 409Z" />
<glyph unicode="+" glyph-name="plus" horiz-adv-x="580" d="M252 268H80V347H252V524H329V347H500V268H329V92H252V268Z" />
<glyph unicode="," glyph-name="comma" horiz-adv-x="265" d="M88 -72T101 -50T118 0H84V92H181V16Q181 -25 160 -67T84 -137L56 -94Q88 -72 101 -50Z" />
<glyph unicode="-" glyph-name="hyphen" horiz-adv-x="488" d="M70 313H418V236H70V313Z" />
<glyph unicode="." glyph-name="period" horiz-adv-x="265" d="M86 92H179V0H86V92Z" />
<glyph unicode="/" glyph-name="slash" horiz-adv-x="464" d="M10 -92L379 706L452 671L83 -127L10 -92Z" />
<glyph unicode="0" glyph-name="zero" horiz-adv-x="600" d="M217 -11T160 31T74 145T46 308Q46 395 76 467T164 581T301 624Q385 624 441 583T526 470T554 308Q554 219 524 147T437 32T301 -11Q217 -11 160 31ZM131 199T173 133T301 67Q385 67 427 133T469 308Q469
415 427 480T301 546Q215 546 173 481T131 308Q131 199 173 133Z" />
<glyph unicode="1" glyph-name="one" horiz-adv-x="473" d="M246 532L71 464L44 533L252 614H331V0H246V532Z" />
<glyph unicode="2" glyph-name="two" horiz-adv-x="580" d="M67 61L262 239Q315 287 343 316T386 376T402 440Q402 490 368 518T279 546Q227 546 187 525T104 450L49 497Q139 624 280 624Q375 624 431 574T487 439Q487 395 469 359T420 288T334 205L190 75H503V0H67V61Z" />
<glyph unicode="3" glyph-name="three" horiz-adv-x="560" d="M129 -11T45 111L101 157Q140 107 180 87T271 67Q334 67 371 93T408 175Q408 289 269 289H207V348L382 537H69V614H475V539L304 354Q393 349 442 302T492 176Q492 91 433 40T274 -11Q129 -11 45 111Z" />
<glyph unicode="4" glyph-name="four" horiz-adv-x="580" d="M357 156H56V227L322 627L385 587L148 227H359V390H438V227H529V156H438V0H357V156Z" />
<glyph unicode="5" glyph-name="five" horiz-adv-x="580" d="M131 -11T47 101L102 148Q143 100 183 84T279 67Q334 67 373 99T412 182Q412 248 369 277T230 307H98L119 614H454V539H191L179 378H256Q374 378 435 326T497 183Q497 127 469 83T392 14T280 -11Q131
-11 47 101Z" />
<glyph unicode="6" glyph-name="six" horiz-adv-x="580" d="M242 -11T201 4T130 50Q95 85 78 140T61 273Q61 365 85 444T167 574T317 624Q375 624 423 604T512 539L463 487Q432 518 398 532T314 546Q160 546 147 328Q177 357 216 372T313 388Q411 388 466 334T522
191Q522 135 493 89T411 16T292 -11Q242 -11 201 4ZM149 141T187 104T292 67Q363 67 402 99T441 191Q441 251 406 283T301 315Q229 315 189 287T149 203Q149 141 187 104Z" />
<glyph unicode="7" glyph-name="seven" horiz-adv-x="540" d="M390 535H42V614H488V551L209 0H117L390 535Z" />
<glyph unicode="8" glyph-name="eight" horiz-adv-x="580" d="M183 -11T125 38T66 166Q66 217 96 256T175 318Q131 338 106 373T81 456Q81 503 107 541T180 602T289 624Q355 624 402 603T473 544T498 459Q498 413 473 378T406 321Q457 300 486 261T515 169Q515
118 488 77T409 13T291 -11Q183 -11 125 38ZM149 120T185 92T291 64Q359 64 395 92T432 169Q432 219 395 250T290 282Q223 282 186 251T149 169Q149 120 185 92ZM161 411T195 384T290 356Q351 356 384 383T418 456Q418 498 384 524T289 550Q228 550 195 524T161
456Q161 411 195 384Z" />
<glyph unicode="9" glyph-name="nine" horiz-adv-x="580" d="M205 -11T157 9T68 74L117 126Q148 95 182 81T266 67Q419 67 432 281Q402 256 364 243T267 229Q169 229 114 283T58 424Q58 480 87 525T169 597T288 624Q388 624 448 564Q519 493 519 342Q519 192 458
91T263 -11Q205 -11 157 9ZM139 365T174 334T279 302Q351 302 391 330T431 412Q431 469 393 507T288 546Q217 546 178 514T139 424Q139 365 174 334Z" />
<glyph unicode=":" glyph-name="colon" horiz-adv-x="265" d="M86 467H179V375H86V467ZM86 92H179V0H86V92Z" />
<glyph unicode=";" glyph-name="semicolon" horiz-adv-x="265" d="M88 -72T101 -50T118 0H84V92H181V16Q181 -25 160 -67T84 -137L56 -94Q88 -72 101 -50ZM86 467H179V375H86V467Z" />
<glyph unicode="&lt;" glyph-name="less" horiz-adv-x="580" d="M113 273V341L422 525L464 457L205 307L464 157L422 89L113 273Z" />
<glyph unicode="=" glyph-name="equal" horiz-adv-x="580" d="M90 450H490V368H90V450ZM90 247H490V165H90V247Z" />
<glyph unicode="&gt;" glyph-name="greater" horiz-adv-x="580" d="M113 157L372 307L113 457L155 525L464 341V273L155 89L113 157Z" />
<glyph unicode="?" glyph-name="question" horiz-adv-x="484" d="M190 251T215 283T293 355Q324 378 341 403T358 462Q358 506 325 532T231 558Q187 558 146 539T77 486L26 531Q61 580 117 607T231 634Q330 634 387 589T444 465Q444 414 417 378T341 304Q302 273
284 252T266 204V178H190V206Q190 251 215 283ZM183 92H275V0H183V92Z" />
<glyph unicode="@" glyph-name="at" horiz-adv-x="927" d="M219 -101T140 -4T60 239Q60 342 111 433T258 579T477 634Q610 634 698 587T829 465T872 307Q872 226 833 167T734 78T619 47H594Q586 75 584 105Q561 73 527 56T449 39Q396 39 355 63T292 133T269 237Q269
292 294 337T361 409T455 435Q533 435 580 373Q582 399 589 426H653V119Q711 133 749 178T788 306Q788 431 701 494T477 557Q367 557 292 510T181 390T145 236Q145 132 203 47T395 -76L360 -143Q219 -101 140 -4ZM353 182T380 148T458 114Q518 114 548 141T579
230V244Q579 305 550 332T462 360Q413 360 383 326T353 240Q353 182 380 148Z" />
<glyph unicode="A" glyph-name="A" horiz-adv-x="611" d="M258 624H355L606 0H516L446 179H163L94 0H5L258 624ZM417 258L304 543L192 258H417Z" />
<glyph unicode="B" glyph-name="B" horiz-adv-x="587" d="M92 624H317Q421 624 477 582T533 461Q533 408 507 374T434 321Q491 303 523 265T555 168Q555 84 495 42T327 0H92V624ZM319 74Q396 74 435 96T475 171Q475 276 319 276H172V74H319ZM309 351Q455 351 455
454Q455 506 419 528T309 550H172V351H309Z" />
<glyph unicode="C" glyph-name="C" horiz-adv-x="618" d="M264 -11T194 29T87 143T49 313Q49 404 87 477T195 592T357 634Q508 634 580 523L524 477Q464 556 356 556Q284 556 234 523T159 434T134 313Q134 246 160 190T237 100T356 67Q413 67 457 89T530 151L585
105Q549 48 491 19T357 -11Q264 -11 194 29Z" />
<glyph unicode="D" glyph-name="D" horiz-adv-x="680" d="M92 624H308Q409 624 482 585T592 475T630 313Q630 222 591 151T478 40T308 0H92V624ZM308 79Q422 79 483 141T545 313Q545 420 484 482T308 545H176V79H308Z" />
<glyph unicode="E" glyph-name="E" horiz-adv-x="555" d="M92 624H512V544H177V357H475V277H177V80H523V0H92V624Z" />
<glyph unicode="F" glyph-name="F" horiz-adv-x="551" d="M92 624H519V544H177V353H481V273H177V0H92V624Z" />
<glyph unicode="G" glyph-name="G" horiz-adv-x="675" d="M263 -11T193 29T86 143T49 313Q49 407 89 480T202 593T369 634Q528 634 605 516L549 470Q484 556 367 556Q291 556 238 524T159 436T133 313Q133 244 158 188T234 99T362 66Q419 66 468 84T546 134V245H368V322H624V102Q578
49 509 19T363 -11Q263 -11 193 29Z" />
<glyph unicode="H" glyph-name="H" horiz-adv-x="710" d="M92 624H177V357H533V624H618V0H533V277H177V0H92V624Z" />
<glyph unicode="I" glyph-name="I" horiz-adv-x="269" d="M92 624H177V0H92V624Z" />
<glyph unicode="J" glyph-name="J" horiz-adv-x="528" d="M163 -11T112 14T24 96L76 144Q140 67 222 67Q297 67 330 117T363 264V624H446V266Q446 128 391 59T222 -11Q163 -11 112 14Z" />
<glyph unicode="K" glyph-name="K" horiz-adv-x="615" d="M92 624H177V353Q213 348 265 348Q369 348 421 413T489 624H570Q564 510 523 429T409 306L615 0H514L330 277Q293 272 261 272Q218 272 177 278V0H92V624Z" />
<glyph unicode="L" glyph-name="L" horiz-adv-x="523" d="M92 624H177V80H513V0H92V624Z" />
<glyph unicode="M" glyph-name="M" horiz-adv-x="800" d="M92 624H174L400 239L626 624H708V0H624V473L436 158H362L176 466V0H92V624Z" />
<glyph unicode="N" glyph-name="N" horiz-adv-x="708" d="M92 624H176L533 129V624H616V0H532L175 494V0H92V624Z" />
<glyph unicode="O" glyph-name="O" horiz-adv-x="707" d="M262 -11T193 31T87 147T49 313Q49 401 88 474T197 591T354 634Q445 634 514 592T620 477T657 313Q657 223 618 149T510 32T354 -11Q262 -11 193 31ZM134 242T161 186T237 99T354 67Q420 67 469 98T545
186T572 313Q572 383 546 438T470 524T354 556Q287 556 238 525T161 438T134 313Q134 242 161 186Z" />
<glyph unicode="P" glyph-name="P" horiz-adv-x="582" d="M92 624H301Q375 624 429 599T513 528T542 422Q542 361 511 315T425 243T299 218Q234 218 177 230V0H92V624ZM233 294T295 294Q371 294 414 327T457 422Q457 485 414 517T295 550H177V304Q233 294 295 294Z" />
<glyph unicode="Q" glyph-name="Q" horiz-adv-x="707" d="M424 -186T376 -138T317 -9Q236 -1 175 43T82 157T49 313Q49 401 88 474T197 591T354 634Q445 634 514 592T620 477T657 313Q657 231 624 162T532 47T398 -8Q407 -57 435 -83T504 -110Q544 -110 573 -97T635
-52L682 -106Q641 -146 598 -166T498 -186Q424 -186 376 -138ZM134 242T161 186T237 99T354 67Q420 67 469 98T545 186T572 313Q572 383 546 438T470 524T354 556Q287 556 238 525T161 438T134 313Q134 242 161 186Z" />
<glyph unicode="R" glyph-name="R" horiz-adv-x="590" d="M92 624H302Q376 624 430 599T513 529T542 426Q542 364 508 318T415 248L572 0H473L333 229Q323 228 302 228Q238 228 175 241V0H92V624ZM231 302T298 302Q373 302 415 334T457 426Q457 487 416 518T298
550H175V313Q231 302 298 302Z" />
<glyph unicode="S" glyph-name="S" horiz-adv-x="574" d="M213 -11T143 22T24 117L76 168Q120 117 174 92T301 66Q378 66 415 91T453 162Q453 197 439 218T391 253T290 280Q206 296 159 313T84 365T55 464Q55 514 85 552T167 612T285 634Q364 634 422 607T526
524L471 478Q426 525 385 541T285 557Q215 557 177 533T138 464Q138 430 155 412T204 383T308 358Q383 343 431 323T508 264T537 160Q537 82 473 36T298 -11Q213 -11 143 22Z" />
<glyph unicode="T" glyph-name="T" horiz-adv-x="591" d="M252 544H30V624H561V544H337V0H252V544Z" />
<glyph unicode="U" glyph-name="U" horiz-adv-x="688" d="M211 -11T146 69T80 292V624H165V292Q165 184 207 126T345 67Q440 67 481 123T523 292V624H608V292Q608 152 540 71T345 -11Q211 -11 146 69Z" />
<glyph unicode="V" glyph-name="V" horiz-adv-x="618" d="M7 624H102L307 85L514 624H610L358 0H259L7 624Z" />
<glyph unicode="W" glyph-name="W" horiz-adv-x="877" d="M16 624H108L249 103L389 618H490L630 103L771 624H861L679 0H582L437 521L292 0H198L16 624Z" />
<glyph unicode="X" glyph-name="X" horiz-adv-x="620" d="M257 329L37 624H140L315 387L483 624H583L365 320L605 0H502L308 260L116 0H15L257 329Z" />
<glyph unicode="Y" glyph-name="Y" horiz-adv-x="542" d="M229 239L8 624H102L274 317L442 624H534L314 241V0H229V239Z" />
<glyph unicode="Z" glyph-name="Z" horiz-adv-x="565" d="M40 70L415 544H40V624H522V554L147 80H532V0H40V70Z" />
<glyph unicode="[" glyph-name="bracketleft" horiz-adv-x="368" d="M90 668H358V592H175V-72H358V-148H90V668Z" />
<glyph unicode="\" glyph-name="backslash" horiz-adv-x="464" d="M12 671L85 706L454 -92L381 -127L12 671Z" />
<glyph unicode="]" glyph-name="bracketright" horiz-adv-x="368" d="M10 -72H193V592H10V668H278V-148H10V-72Z" />
<glyph unicode="^" glyph-name="asciicircum" horiz-adv-x="600" d="M92 303L267 471H335L507 303L456 251L300 393L143 251L92 303Z" />
<glyph unicode="_" glyph-name="underscore" horiz-adv-x="500" d="M0 -67H500V-147H0V-67Z" />
<glyph unicode="`" glyph-name="grave" horiz-adv-x="500" d="M123 649L163 706L338 586L302 534L123 649Z" />
<glyph unicode="a" glyph-name="a" horiz-adv-x="544" d="M144 -11T100 27T55 129Q55 196 106 237T251 279Q329 279 390 255V267Q390 340 356 373T266 406Q220 406 185 394T112 352L69 403Q113 444 160 461T272 478Q327 478 372 456T443 388T470 278V0H407Q398
29 394 72Q370 34 327 12T223 -11Q144 -11 100 27ZM135 60T231 60Q305 60 347 97T390 194V195Q329 213 263 213Q194 213 165 192T135 131Q135 60 231 60Z" />
<glyph unicode="b" glyph-name="b" horiz-adv-x="599" d="M275 -11T232 12T160 78Q156 35 146 0H83V674H165V395Q193 434 236 456T332 478Q396 478 445 447T522 359T549 232Q549 161 521 106T443 20T329 -11Q275 -11 232 12ZM165 146T208 104T322 62Q388 62 427
104T466 229Q466 313 428 359T325 405Q253 405 209 364T165 247V221Q165 146 208 104Z" />
<glyph unicode="c" glyph-name="c" horiz-adv-x="492" d="M211 -11T159 20T78 106T50 233Q50 303 78 358T159 446T278 478Q337 478 379 456T454 385L405 342Q380 374 351 389T278 405Q212 405 173 357T133 233Q133 160 174 111T281 62Q361 62 411 128L460 85Q401
-11 281 -11Q211 -11 159 20Z" />
<glyph unicode="d" glyph-name="d" horiz-adv-x="600" d="M203 -11T154 20T77 107T50 234Q50 305 78 360T158 447T274 478Q324 478 365 457T435 399V674H517V0H454Q443 33 441 79Q413 37 368 13T268 -11Q203 -11 154 20ZM133 153T171 108T274 62Q346 62 390 104T435
221V247Q435 322 393 363T280 405Q213 405 173 363T133 237Q133 153 171 108Z" />
<glyph unicode="e" glyph-name="e" horiz-adv-x="544" d="M212 -11T159 20T78 106T50 233Q50 300 78 356T159 445T277 478Q375 478 431 416T487 245V213H130Q135 146 176 104T285 62Q382 62 429 129L480 86Q419 -11 285 -11Q212 -11 159 20ZM402 281Q397 340 366
373T277 406Q220 406 182 374T133 281H402Z" />
<glyph unicode="f" glyph-name="f" horiz-adv-x="395" d="M114 394H29V467H114V504Q114 593 156 639T273 685Q327 685 363 664V595Q332 612 286 612Q239 612 218 587T196 506V467H363V394H196V0H114V394Z" />
<glyph unicode="g" glyph-name="g" horiz-adv-x="545" d="M345 -139T368 -123T391 -78Q391 -44 368 -29T278 -14H198Q136 -14 105 11T73 83Q73 141 145 168Q105 190 84 226T62 309Q62 359 88 397T161 457T271 478Q321 478 362 464T430 424Q454 448 454 494H521V476Q521
443 507 415T466 370Q477 340 477 309Q477 232 421 186T271 139Q200 139 175 130T150 97Q150 77 167 69T223 61H294Q386 61 431 30T476 -75Q476 -135 427 -170T297 -205V-140Q345 -139 368 -123ZM141 262T174 235T271 208Q332 208 365 234T398 309Q398 356 365
382T271 409Q209 409 175 383T141 309Q141 262 174 235Z" />
<glyph unicode="h" glyph-name="h" horiz-adv-x="585" d="M83 674H165V398Q192 436 232 457T323 478Q412 478 461 426T511 267V0H429V271Q429 337 400 371T316 405Q247 405 206 362T165 243V0H83V674Z" />
<glyph unicode="i" glyph-name="i" horiz-adv-x="248" d="M83 467H165V0H83V467ZM334 661H426V569H334V661Z" />
<glyph unicode="j" glyph-name="j" horiz-adv-x="248" d="M-45 -205T-73 -188V-119Q-47 -133 -1 -133Q39 -133 61 -103T83 -13V467H165V-8Q165 -108 122 -156T6 -205Q-45 -205 -73 -188ZM334 661H426V569H334V661Z" />
<glyph unicode="k" glyph-name="k" horiz-adv-x="528" d="M83 674H164V288Q199 285 227 285Q285 285 323 301T383 356T414 467H482Q473 299 356 240L516 0H415L278 217Q255 213 224 213Q192 213 164 217V0H83V674Z" />
<glyph unicode="l" glyph-name="l" horiz-adv-x="248" d="M83 674H165V0H83V674Z" />
<glyph unicode="m" glyph-name="m" horiz-adv-x="909" d="M83 467H148Q159 433 161 393Q188 433 228 455T319 478Q377 478 417 454T479 381Q506 427 551 452T654 478Q742 478 788 424T835 264V0H753V270Q753 336 726 370T646 405Q578 405 539 362T500 243V0H418V270Q418
336 391 370T310 405Q243 405 204 362T165 243V0H83V467Z" />
<glyph unicode="n" glyph-name="n" horiz-adv-x="585" d="M83 467H148Q160 434 162 393Q188 433 229 455T323 478Q412 478 461 426T511 267V0H429V271Q429 337 400 371T316 405Q247 405 206 362T165 243V0H83V467Z" />
<glyph unicode="o" glyph-name="o" horiz-adv-x="576" d="M219 -11T165 20T80 106T50 233Q50 301 80 357T165 445T289 478Q359 478 413 447T496 360T526 233Q526 165 496 110T411 22T289 -11Q219 -11 165 20ZM133 159T175 111T289 62Q359 62 401 110T443 233Q443
307 401 356T289 405Q218 405 176 356T133 233Q133 159 175 111Z" />
<glyph unicode="p" glyph-name="p" horiz-adv-x="599" d="M83 467H148Q158 439 162 391Q190 432 234 455T332 478Q396 478 445 447T522 359T549 232Q549 161 521 106T443 20T329 -11Q278 -11 236 10T165 70V-194H83V467ZM165 146T208 104T322 62Q388 62 427 104T466
229Q466 313 428 359T325 405Q253 405 209 364T165 247V221Q165 146 208 104Z" />
<glyph unicode="q" glyph-name="q" horiz-adv-x="600" d="M406 33T363 11T268 -11Q203 -11 154 20T77 107T50 234Q50 306 78 361T158 447T274 478Q325 478 366 457T436 398Q438 435 448 467H517V-194H435V71Q406 33 363 11ZM133 153T171 108T274 62Q346 62 390
104T435 221V247Q435 322 393 363T280 405Q213 405 173 363T133 237Q133 153 171 108Z" />
<glyph unicode="r" glyph-name="r" horiz-adv-x="374" d="M83 467H148Q161 422 162 389Q186 430 226 454T304 478Q322 478 344 474V396Q331 399 302 399Q271 399 239 381T186 326T165 239V0H83V467Z" />
<glyph unicode="s" glyph-name="s" horiz-adv-x="467" d="M175 -11T127 9T44 67L85 116Q114 86 151 74T237 62Q336 62 336 128Q336 162 308 179T225 204Q146 215 104 244T61 344Q61 381 83 411T145 460T240 478Q298 478 339 460T415 403L370 354Q340 384 310 394T236
405Q186 405 164 388T141 342Q141 309 165 296T251 274Q328 262 373 232T419 133Q419 70 372 30T243 -11Q175 -11 127 9Z" />
<glyph unicode="t" glyph-name="t" horiz-adv-x="395" d="M196 -11T155 37T114 179V394H29V467H114V599H196V467H363V394H196V175Q196 117 217 90T286 62Q331 62 363 78V9Q325 -11 271 -11Q196 -11 155 37Z" />
<glyph unicode="u" glyph-name="u" horiz-adv-x="583" d="M176 -11T127 42T78 200V467H160V192Q160 127 189 94T271 61Q340 61 379 103T419 221V467H501V0H437Q425 34 423 73Q396 34 355 12T264 -11Q176 -11 127 42Z" />
<glyph unicode="v" glyph-name="v" horiz-adv-x="505" d="M15 467H104L254 88L401 467H490L295 0H209L15 467Z" />
<glyph unicode="w" glyph-name="w" horiz-adv-x="746" d="M20 467H108L214 90L327 463H421L534 90L638 467H726L580 0H488L372 374L256 0H166L20 467Z" />
<glyph unicode="x" glyph-name="x" horiz-adv-x="488" d="M193 243L26 467H119L246 292L371 467H461L294 243L475 0H381L242 191L105 0H14L193 243Z" />
<glyph unicode="y" glyph-name="y" horiz-adv-x="495" d="M88 -205T62 -195T12 -161L47 -108Q66 -124 80 -130T116 -137Q148 -137 168 -108T217 -8L224 9L10 467H103L261 106L394 467H483L286 -40Q222 -205 126 -205Q88 -205 62 -195Z" />
<glyph unicode="z" glyph-name="z" horiz-adv-x="468" d="M40 62L320 394H47V467H424V405L141 73H436V0H40V62Z" />
<glyph unicode="{" glyph-name="braceleft" horiz-adv-x="352" d="M236 -159T183 -110T130 33V171Q130 197 114 210T58 232V288Q97 296 113 309T130 349V487Q130 580 183 629T323 679L337 615Q278 614 245 583T212 490V354Q212 290 159 260Q212 230 212 166V30Q212
-32 245 -63T337 -95L323 -159Q236 -159 183 -110Z" />
<glyph unicode="|" glyph-name="bar" horiz-adv-x="269" d="M92 681H177V-102H92V681Z" />
<glyph unicode="}" glyph-name="braceright" horiz-adv-x="357" d="M74 -94T107 -63T140 30V166Q140 230 193 260Q140 290 140 354V490Q140 552 107 583T15 615L29 679Q116 679 169 630T222 487V349Q222 323 238 310T294 288V232Q255 224 239 211T222 171V33Q222
-60 169 -109T29 -159L15 -95Q74 -94 107 -63Z" />
<glyph unicode="~" glyph-name="asciitilde" horiz-adv-x="580" d="M348 238T326 247T276 274Q256 287 240 293T207 300Q177 300 156 288T114 248L59 295Q84 333 121 357T206 381Q234 381 255 372T303 347Q324 333 340 326T376 319Q406 319 427 331T469 371L521
328Q461 238 377 238Q348 238 326 247Z" />
</font>
</defs>
</svg>
