<?xml version="1.0" standalone="no"?>
<!DOCTYPE svg PUBLIC "-//W3C//DTD SVG 1.1//EN" "http://www.w3.org/Graphics/SVG/1.1/DTD/svg11.dtd" >
<svg xmlns="http://www.w3.org/2000/svg" xmlns:xlink="http://www.w3.org/1999/xlink" version="1.1">
<metadata></metadata>
<defs>
<font id="resolve_sansregular" horiz-adv-x="1544" >
<font-face units-per-em="2048" ascent="1638" descent="-410" />
<missing-glyph horiz-adv-x="454" />
<glyph unicode="&#xfb01;" horiz-adv-x="1327" d="M33 791v180h184v12q0 103 19.5 176t65.5 127t124 80.5t192 26.5h230l2 -203h-197q-114 0 -159 -49.5t-45 -157.5v-12h348v-180h-348v-791h-232v791h-184zM942 1278q0 129 129 129t129 -129q0 -127 -129 -127t-129 127zM961 0v971h225v-971h-225z" />
<glyph unicode="&#xfb02;" horiz-adv-x="1323" d="M33 791v180h184v12q0 103 19.5 176t65.5 127t124 80.5t192 26.5h230l2 -203h-197q-114 0 -159 -49.5t-45 -157.5v-12h348v-180h-348v-791h-232v791h-184zM967 0v1393h225v-1393h-225z" />
<glyph horiz-adv-x="0" />
<glyph horiz-adv-x="682" />
<glyph unicode=" "  horiz-adv-x="454" />
<glyph unicode="&#x09;" horiz-adv-x="454" />
<glyph unicode="&#xa0;" horiz-adv-x="454" />
<glyph unicode="!" horiz-adv-x="604" d="M174 104q0 129 129 129t129 -129q0 -127 -129 -127t-129 127zM180 1354h242l-23 -959h-196z" />
<glyph unicode="&#x22;" horiz-adv-x="768" d="M119 1354h196l-28 -469h-140zM451 1354h198l-31 -469h-137z" />
<glyph unicode="#" horiz-adv-x="1560" d="M111 307v185h184l115 409h-154v182h203l76 271h229l-76 -271h385l76 271h229l-75 -271h147v-182h-197l-114 -409h155v-185h-207l-86 -313h-229l86 313h-385l-86 -313h-229l86 313h-133zM524 492h385l115 409h-385z" />
<glyph unicode="$" horiz-adv-x="1163" d="M76 424v35h256v-31q0 -168 254 -168q127 0 191.5 33t64.5 121v12q0 64 -47.5 101t-163.5 48l-152 19q-206 22 -303.5 115.5t-97.5 238.5v17q0 288 377 321v125h256v-133q165 -26 253.5 -111t88.5 -221v-43h-256v33q0 168 -248 168q-117 0 -170 -31.5t-53 -97.5v-12 q0 -68 49.5 -106t154.5 -50l181 -19q103 -11 178.5 -42t118.5 -78t63.5 -102.5t20.5 -121.5v-12q0 -164 -95.5 -250.5t-285.5 -105.5v-133h-256v133q-186 22 -282 109.5t-97 238.5z" />
<glyph unicode="%" horiz-adv-x="1456" d="M39 1012v59q0 138 80 222.5t231 84.5q150 0 231 -84.5t81 -222.5v-59q0 -137 -81.5 -221t-230.5 -84q-150 0 -230.5 84t-80.5 221zM166 0l895 1354h237l-892 -1354h-240zM203 1001q0 -69 36.5 -108t110.5 -39q73 0 109.5 39.5t36.5 107.5v84q0 69 -36.5 108.5 t-109.5 39.5q-74 0 -110.5 -39.5t-36.5 -108.5v-84zM795 283v59q0 138 80 222.5t231 84.5t231 -84.5t80 -222.5v-59q0 -137 -80.5 -221.5t-230.5 -84.5t-230.5 84.5t-80.5 221.5zM961 272q0 -69 36 -108t109 -39q74 0 109.5 39t35.5 108v84q0 69 -36 108.5t-109 39.5 t-109 -39.5t-36 -108.5v-84z" />
<glyph unicode="&#x26;" horiz-adv-x="1492" d="M47 307v17q0 135 92 224.5t285 147.5q-71 81 -106 160t-35 176v17q0 162 118 245.5t326 83.5q209 0 326.5 -84.5t117.5 -249.5v-16q0 -72 -30.5 -133t-86 -106.5t-119 -78t-144.5 -61.5l227 -221l35 53l110 152h297l-174 -230q-45 -63 -106 -131l282 -272h-344l-117 117 q-209 -140 -509 -140q-213 0 -329 84.5t-116 245.5zM307 348q0 -85 64.5 -131.5t169.5 -46.5q179 0 313 92l-281 279q-20 20 -30 28q-127 -41 -181.5 -90.5t-54.5 -120.5v-10zM530 1014q0 -68 34.5 -125.5t103.5 -124.5q127 49 191.5 107t64.5 141v14q0 162 -193 162 q-98 0 -149.5 -40t-51.5 -118v-16z" />
<glyph unicode="'" horiz-adv-x="434" d="M119 1354h196l-28 -469h-140z" />
<glyph unicode="(" horiz-adv-x="880" d="M195 338v756q0 471 471 471v-199q-254 0 -254 -252v-797q0 -260 254 -260v-200q-241 0 -356 119.5t-115 361.5z" />
<glyph unicode=")" horiz-adv-x="880" d="M215 57q254 0 254 260v797q0 252 -254 252v199q471 0 471 -471v-756q0 -242 -115 -361.5t-356 -119.5v200z" />
<glyph unicode="*" horiz-adv-x="806" d="M57 1042l56 150l225 -96l-16 258h163l-16 -258l225 96l56 -150l-248 -77l188 -195l-121 -106l-168 217l-168 -217l-122 106l190 197z" />
<glyph unicode="+" horiz-adv-x="915" d="M84 584v174h281v278h186v-278h280v-174h-280v-279h-186v279h-281z" />
<glyph unicode="," horiz-adv-x="514" d="M57 -324l107 476h217l-158 -476h-166z" />
<glyph unicode="-" horiz-adv-x="882" d="M92 541v190h699v-190h-699z" />
<glyph unicode="." horiz-adv-x="507" d="M125 104q0 129 129 129t129 -129q0 -127 -129 -127t-129 127z" />
<glyph unicode="/" horiz-adv-x="1366" d="M63 -133l963 1601h274l-958 -1601h-279z" />
<glyph unicode="0" horiz-adv-x="1462" d="M135 569v226q0 279 152.5 429.5t443.5 151.5q291 0 443.5 -151t152.5 -430v-226q0 -286 -152 -437.5t-444 -151.5q-292 -1 -444 151t-152 438zM387 578q0 -383 344 -383t344 383v208q0 373 -344 373t-344 -373v-208z" />
<glyph unicode="1" horiz-adv-x="696" d="M-25 1257l338 97h193v-1354h-242v1145l-239 -74z" />
<glyph unicode="2" horiz-adv-x="1191" d="M37 874v15q2 227 149.5 358t403.5 131q233 0 355 -99.5t122 -279.5v-18q0 -151 -92 -283.5t-287 -291.5l-227 -189h713v-217h-1094v186l459 377q90 76 146 135t93 127t37 133v15q0 92 -62 145t-178 53q-136 0 -213 -72t-81 -214v-11h-244z" />
<glyph unicode="3" horiz-adv-x="1220" d="M61 446v9h246v-9q0 -262 299 -262q137 0 210 53t73 148v10q0 102 -78.5 150.5t-204.5 48.5h-203v170h183q120 0 198 54t78 151v10q0 91 -60.5 141.5t-183.5 50.5q-137 0 -209.5 -63.5t-72.5 -183.5v-9h-246v9q0 207 143.5 330.5t403.5 123.5q240 0 358.5 -93.5 t118.5 -262.5v-14q0 -113 -68 -199.5t-196 -126.5q143 -32 217 -114t74 -206v-12q0 -179 -135 -276t-394 -97q-271 0 -411 124.5t-140 344.5z" />
<glyph unicode="4" horiz-adv-x="1187" d="M10 258v164l707 932h262v-926h188v-170h-188v-258h-227v258h-742zM246 428h506v651z" />
<glyph unicode="5" horiz-adv-x="1228" d="M82 395v11h246v-9q0 -100 73 -156.5t203 -56.5q138 0 211.5 64.5t73.5 181.5v10q0 114 -77.5 177t-201.5 63q-113 0 -190 -46.5t-80 -127.5v-14h-221v862h930v-215h-705v-398q121 121 352 121q200 0 322.5 -110.5t122.5 -311.5v-14q0 -211 -133.5 -330t-380.5 -119 q-261 0 -403 114t-142 304z" />
<glyph unicode="6" horiz-adv-x="1400" d="M135 530v265q0 278 145.5 429t419.5 152q266 0 407.5 -122t141.5 -326v-6h-250v4q0 105 -75.5 169t-216.5 64q-163 0 -241.5 -93t-78.5 -280v-135q114 142 412 142q487 0 487 -367v-16q0 -203 -148.5 -316.5t-424.5 -113.5q-285 -1 -431.5 149.5t-146.5 400.5zM397 416 q0 -42 17.5 -81.5t52.5 -74t99 -55.5t147 -21q321 0 321 232v12q0 223 -321 223q-155 0 -235.5 -59t-80.5 -168v-8z" />
<glyph unicode="7" horiz-adv-x="1083" d="M20 1139v215h981v-183l-485 -1171h-278l510 1139h-728z" />
<glyph unicode="8" horiz-adv-x="1245" d="M82 348v12q0 118 70 203t204 123q-113 45 -174 131t-61 191v14q0 167 129 261.5t373 94.5q245 0 373 -94.5t128 -261.5v-14q0 -105 -61 -191t-174 -131q134 -38 204 -123t70 -203v-12q0 -175 -138 -273t-402 -98t-402.5 98t-138.5 273zM334 387q0 -93 75 -148t214 -55 t213.5 55t74.5 148v10q0 104 -79.5 157.5t-208.5 53.5q-130 0 -209.5 -53.5t-79.5 -157.5v-10zM369 963q0 -90 73 -143.5t181 -53.5q109 0 180 53.5t71 143.5v14q0 90 -65 142t-186 52q-120 0 -187 -52.5t-67 -141.5v-14z" />
<glyph unicode="9" horiz-adv-x="1361" d="M111 928v16q0 204 140.5 317.5t407.5 114.5q143 0 252 -40.5t177.5 -115t102.5 -175t34 -224.5v-256q0 -283 -146 -434t-430 -151q-247 -1 -386.5 120.5t-141.5 323.5v8h252v-4q0 -104 74 -168.5t208 -64.5q162 0 240 93t78 281v131q-108 -168 -398 -168q-464 0 -464 396 zM362 911q0 -227 304 -227q139 0 219 64.5t80 175.5v8q0 40 -17.5 79t-52 72.5t-94 54.5t-135.5 21q-304 0 -304 -235v-13z" />
<glyph unicode=":" horiz-adv-x="544" d="M143 203q0 127 129 127t129 -127q0 -129 -129 -129q-64 0 -96.5 33.5t-32.5 95.5zM143 813q0 127 129 127t129 -127q0 -129 -129 -129t-129 129z" />
<glyph unicode=";" horiz-adv-x="593" d="M82 -324l104 476h217l-157 -476h-164zM176 807q0 129 129 129t129 -129q0 -127 -129 -127t-129 127z" />
<glyph unicode="&#x3c;" horiz-adv-x="733" d="M70 549v199l589 270v-184l-454 -187l454 -192v-187z" />
<glyph unicode="=" horiz-adv-x="892" d="M74 375v180h745v-180h-745zM74 766v180h745v-180h-745z" />
<glyph unicode="&#x3e;" horiz-adv-x="733" d="M74 268v187l456 192l-456 187v184l590 -270v-199z" />
<glyph unicode="?" horiz-adv-x="1136" d="M68 909v15q2 212 141 333t383 121q223 0 342 -97t119 -265v-15q0 -159 -84.5 -260t-268.5 -180l-102 -43v-172h-223v283l198 82q119 58 173.5 116.5t54.5 145.5v10q0 87 -59 137.5t-173 50.5q-118 0 -186.5 -63t-71.5 -180v-19h-243zM350 102q0 123 137 123 q136 0 136 -123q0 -127 -136 -127q-137 0 -137 127z" />
<glyph unicode="@" horiz-adv-x="1579" d="M104 547v117q0 137 36 244t98 177.5t152.5 116.5t193.5 65.5t225 18.5q121 -1 221 -20t186 -62.5t145 -109.5t92.5 -164t33.5 -223v-228q0 -159 -73 -241t-214 -82q-109 0 -170.5 59t-73.5 168q-33 -78 -97.5 -122t-153.5 -44q-138 0 -213.5 90t-75.5 260v86 q0 162 76 251t213 89q157 0 229 -127v103h180v-531q0 -153 105 -153q112 0 112 168v266q0 120 -36.5 205t-107 134t-163 71.5t-215.5 23.5q-551 4 -551 -469v-160q0 -127 35 -217t102.5 -141t154 -73.5t202.5 -22.5h231v-131h-229q-121 0 -218 19t-179 63t-137 113.5 t-85.5 173.5t-30.5 239zM604 588q0 -217 166 -217q164 0 164 196v76q0 197 -164 197q-166 0 -166 -209v-43z" />
<glyph unicode="A" horiz-adv-x="1355" d="M16 0l539 1356h246l538 -1356h-235l-107 274h-639l-106 -274h-236zM432 463h492l-246 629z" />
<glyph unicode="B" horiz-adv-x="1404" d="M162 0v1354h653q216 0 315 -78t101 -232v-10q-6 -241 -225 -311q301 -53 307 -324v-10q0 -185 -126 -287t-390 -102h-635zM403 205h375q146 0 213.5 56.5t67.5 150.5v8q0 90 -62.5 138t-205.5 48h-388v-401zM403 797h314q151 0 212.5 49.5t61.5 136.5v8q0 158 -203 158 h-385v-352z" />
<glyph unicode="C" horiz-adv-x="1490" d="M115 604v156q0 312 158 465t483 153q633 0 633 -524v-14h-246v14q-1 166 -97.5 241.5t-289.5 75.5q-202 0 -299 -96t-97 -313v-160q0 -223 97.5 -321.5t298.5 -98.5q194 0 290.5 76t96.5 244v12h246v-12q0 -524 -633 -527q-326 2 -483.5 156.5t-157.5 472.5z" />
<glyph unicode="D" horiz-adv-x="1507" d="M162 0v1354h573q335 0 495.5 -147.5t160.5 -461.5v-127q0 -319 -160.5 -468.5t-495.5 -149.5h-573zM403 217h338q206 0 306 93.5t100 305.5v132q0 207 -99.5 299t-306.5 92h-338v-922z" />
<glyph unicode="E" horiz-adv-x="1261" d="M162 0v1354h1014v-215h-773v-361h662v-194h-662v-367h773v-217h-1014z" />
<glyph unicode="F" horiz-adv-x="1243" d="M162 0v1354h1024v-215h-783v-406h670v-194h-670v-539h-241z" />
<glyph unicode="G" horiz-adv-x="1517" d="M115 604v156q0 313 157.5 465.5t485.5 152.5q612 0 618 -483v-12h-243v10q-3 146 -97 213.5t-278 67.5q-205 0 -301.5 -96.5t-96.5 -315.5v-160q0 -223 95.5 -321.5t296.5 -98.5q170 0 267 59.5t120 190.5v103h-523v178h773v-713h-226l-12 176q-122 -201 -469 -201 q-278 0 -422.5 156.5t-144.5 472.5z" />
<glyph unicode="H" horiz-adv-x="1507" d="M162 0v1354h241v-582h701v582h242v-1354h-242v555h-701v-555h-241z" />
<glyph unicode="I" horiz-adv-x="565" d="M162 0v1354h241v-1354h-241z" />
<glyph unicode="J" horiz-adv-x="864" d="M45 0v217h141q80 1 131.5 13t89.5 43.5t55 87t17 141.5v852h240v-846q0 -280 -113.5 -394t-384.5 -114h-176z" />
<glyph unicode="K" horiz-adv-x="1419" d="M162 0v1354h241v-656l631 656h320l-535 -537l545 -817h-295l-428 637l-238 -240v-397h-241z" />
<glyph unicode="L" horiz-adv-x="1124" d="M162 0v1354h241v-1137h697v-217h-938z" />
<glyph unicode="M" horiz-adv-x="1888" d="M162 0v1356h305l481 -936l475 936h303v-1356h-231v985l-444 -883h-203l-453 883v-985h-233z" />
<glyph unicode="N" horiz-adv-x="1517" d="M162 0v1356h284l678 -1004v1004h232v-1356h-295l-666 999v-999h-233z" />
<glyph unicode="O" d="M115 602v160q0 309 162 461t495 153q333 0 495.5 -152.5t162.5 -461.5v-160q0 -315 -162.5 -468.5t-495.5 -153.5h-4q-330 0 -491 153q-162 154 -162 469zM367 612q0 -220 100 -318.5t305 -98.5q206 0 306 98.5t100 318.5v140q0 216 -99.5 311.5t-306.5 95.5t-306 -95.5 t-99 -311.5v-140z" />
<glyph unicode="P" horiz-adv-x="1310" d="M162 0v1354h583q254 0 372 -102.5t118 -311.5v-4q0 -211 -117.5 -315.5t-372.5 -104.5h-342v-516h-241zM403 721h342q134 0 190 56.5t56 158.5v4q0 99 -56.5 154t-189.5 55h-342v-428z" />
<glyph unicode="Q" d="M115 602v160q0 309 162 461t495 153q333 0 495.5 -152.5t162.5 -461.5v-160q0 -258 -108 -407t-329 -195l316 -199l-129 -161l-555 348q-258 31 -384 183t-126 431zM367 612q0 -220 100 -318.5t305 -98.5q206 0 306 98.5t100 318.5v140q0 216 -99.5 311.5t-306.5 95.5 t-306 -95.5t-99 -311.5v-140z" />
<glyph unicode="R" horiz-adv-x="1343" d="M162 0v1354h577q251 0 365.5 -98t116.5 -300v-14q0 -170 -70.5 -267.5t-222.5 -129.5l354 -545h-283l-333 526h-263v-526h-241zM403 725h338q236 0 236 209v12q-3 199 -236 199h-338v-420z" />
<glyph unicode="S" horiz-adv-x="1288" d="M53 432v8h228v-8q0 -125 95 -190.5t275 -65.5q167 0 249.5 47t82.5 150v6q-1 87 -62.5 128.5t-183.5 57.5l-200 25q-88 10 -156.5 28.5t-127.5 50t-97.5 75.5t-60.5 108t-23 145v4q2 183 139 280t418 97q278 0 415.5 -114.5t137.5 -313.5v-12h-228v8q-2 114 -85.5 173 t-245.5 59q-163 0 -237.5 -41.5t-74.5 -130.5v-5q0 -91 63.5 -133.5t203.5 -60.5l223 -27q419 -50 422 -387v-8q0 -408 -572 -408q-309 0 -453.5 121.5t-144.5 333.5z" />
<glyph unicode="T" horiz-adv-x="1239" d="M53 1139v215h1133v-215h-447v-1139h-239v1139h-447z" />
<glyph unicode="U" d="M135 625v729h252v-748q0 -219 95 -316t290 -97t290 97t95 316v748h252v-729q0 -332 -156.5 -490t-480.5 -160q-323 0 -480 159t-157 491z" />
<glyph unicode="V" horiz-adv-x="1382" d="M31 1354h245l414 -1059l416 1059h246l-553 -1360h-217z" />
<glyph unicode="W" horiz-adv-x="2285" d="M31 1354h256l370 -1039l383 1039h205l383 -1039l371 1039h256l-514 -1356h-230l-368 981l-371 -981h-227z" />
<glyph unicode="X" horiz-adv-x="1374" d="M39 0l487 684l-469 670h289l346 -512l346 512h279l-471 -668l489 -686h-291l-362 524l-365 -524h-278z" />
<glyph unicode="Y" horiz-adv-x="1353" d="M45 1354h291l344 -557l350 557h281l-506 -758v-602h-242v588z" />
<glyph unicode="Z" horiz-adv-x="1243" d="M57 1139v215h1078v-195l-719 -942h792v-217h-1114v205l721 934h-758z" />
<glyph unicode="[" horiz-adv-x="755" d="M180 -115v1682h484v-185h-277v-1312h277v-185h-484z" />
<glyph unicode="\" horiz-adv-x="1366" d="M63 1468h277l960 -1601h-276z" />
<glyph unicode="]" horiz-adv-x="755" d="M92 70h277v1312h-277v185h483v-1682h-483v185z" />
<glyph unicode="^" horiz-adv-x="1228" />
<glyph unicode="_" horiz-adv-x="1191" d="M92 -115h1008v-180h-1008v180z" />
<glyph unicode="a" horiz-adv-x="1005" d="M51 258v10q0 131 85.5 205t254.5 74h289v55q0 207 -184 207q-100 0 -145.5 -49t-45.5 -123v-10h-211v12q0 71 22.5 133t68 113t125.5 80.5t186 29.5q405 0 405 -399v-596h-207v115q-108 -138 -313 -138h-10q-153 0 -236.5 74t-83.5 207zM252 272q0 -65 38 -96t122 -31h8 q74 0 130 21.5t93 78t37 144.5v4h-270q-79 0 -118.5 -31.5t-39.5 -82.5v-7z" />
<glyph unicode="b" horiz-adv-x="1110" d="M131 0v1372h225v-510q98 133 291 133q181 0 280 -111t99 -313v-172q0 -200 -99 -311t-280 -111q-121 0 -204 52t-126 143v-172h-186zM356 399q0 -107 59.5 -172t162.5 -65q99 0 158 64t59 186v149q0 123 -59 186.5t-158 63.5q-103 0 -162.5 -65t-59.5 -175v-172z" />
<glyph unicode="c" horiz-adv-x="1030" d="M84 391v191q0 183 113 298t329 115q112 0 196.5 -33t133 -90.5t72.5 -127t24 -150.5v-27h-221v27q0 98 -54.5 157.5t-152.5 59.5q-101 0 -155 -63t-54 -166v-191q0 -103 54 -166t155 -63q97 0 150 52.5t53 141.5v23h221v-31q-1 -77 -24.5 -142t-72 -118t-132 -83 t-193.5 -30q-216 0 -329 116t-113 300z" />
<glyph unicode="d" horiz-adv-x="1101" d="M84 410v151q0 203 99 318.5t280 115.5q187 0 282 -133v531h224v-1393h-185v166q-90 -191 -321 -191q-181 0 -280 116t-99 319zM315 410q0 -122 57 -185t156 -63q100 0 158.5 65t58.5 172v172q0 110 -58 175t-159 65q-99 0 -156 -63t-57 -187v-151z" />
<glyph unicode="e" horiz-adv-x="1050" d="M84 401v172q0 194 116 308t332 114q217 0 329 -113.5t112 -308.5v-155h-658v-27q0 -103 57.5 -166t164.5 -63q102 0 157.5 48.5t55.5 123.5v6h219v-8q0 -160 -115 -257.5t-322 -97.5q-217 0 -332.5 113.5t-115.5 310.5zM315 557h433v35q0 99 -56 159t-160 60 q-103 0 -160 -60.5t-57 -158.5v-35z" />
<glyph unicode="f" horiz-adv-x="856" d="M33 791v180h184v12q0 103 19.5 176t65.5 127t124 80.5t192 26.5h230l2 -203h-197q-114 0 -159 -49.5t-45 -157.5v-12h348v-180h-348v-791h-232v791h-184z" />
<glyph unicode="g" horiz-adv-x="1107" d="M82 492v69q0 202 98.5 318t280.5 116q231 0 317 -200v176h189v-883q0 -239 -111.5 -350t-323.5 -111q-196 0 -304.5 87t-108.5 249v12h219v-8q0 -162 197 -162q101 0 154.5 54t53.5 176v186q-89 -164 -290 -164q-177 0 -274 116t-97 319zM313 492q0 -123 57.5 -186.5 t155.5 -63.5q99 0 158 65t59 172v92q0 109 -59 174.5t-158 65.5t-156 -63t-57 -187v-69z" />
<glyph unicode="h" horiz-adv-x="1153" d="M131 0v1393h227v-551q96 153 314 153q168 0 257 -94.5t89 -269.5v-631h-227v592q0 107 -53 164t-154 57q-106 0 -166 -64t-60 -167v-582h-227z" />
<glyph unicode="i" horiz-adv-x="512" d="M127 1278q0 129 129 129t129 -129q0 -127 -129 -127t-129 127zM145 0v971h226v-971h-226z" />
<glyph unicode="j" horiz-adv-x="499" d="M-27 -150h41q61 0 89 29.5t28 106.5v985h227v-994q0 -177 -79 -252t-250 -75h-54zM119 1278q0 129 129 129t129 -129q0 -127 -129 -127t-129 127z" />
<glyph unicode="k" horiz-adv-x="1091" d="M131 0v1393h225v-844l412 422h264l-338 -344l355 -627h-252l-269 459l-172 -174v-285h-225z" />
<glyph unicode="l" horiz-adv-x="487" d="M131 0h225v1393h-225v-1393z" />
<glyph unicode="m" horiz-adv-x="1751" d="M145 0v971h199v-185q41 99 123.5 154t204.5 55q231 0 297 -198q83 198 321 198q162 0 244 -93.5t82 -270.5v-631h-225v592q0 107 -48 164t-139 57q-99 0 -155 -64.5t-56 -166.5v-582h-225v592q0 107 -47.5 164t-138.5 57q-100 0 -155.5 -64t-55.5 -167v-582h-226z" />
<glyph unicode="n" horiz-adv-x="1165" d="M145 0v971h199v-187q90 211 342 211q167 0 255.5 -94.5t88.5 -271.5v-629h-225v590q0 108 -53.5 164.5t-155.5 56.5q-106 0 -165.5 -64t-59.5 -165v-582h-226z" />
<glyph unicode="o" horiz-adv-x="1097" d="M84 416v139q0 203 117.5 321t347.5 119q229 0 347 -118.5t118 -321.5v-139q0 -203 -117.5 -321t-347.5 -118t-347.5 118t-117.5 321zM315 401q0 -110 60.5 -174.5t173.5 -64.5t172 64.5t59 174.5v166q0 112 -59 178t-172 66t-173.5 -66t-60.5 -178v-166z" />
<glyph unicode="p" horiz-adv-x="1107" d="M137 -350v1321h187v-176q87 200 319 200q182 0 280.5 -116t98.5 -320v-147q0 -204 -98.5 -319.5t-280.5 -115.5q-184 0 -281 125v-452h-225zM362 399q0 -107 59 -172t159 -65q97 0 155 64t58 186v147q0 125 -57.5 187.5t-155.5 62.5q-101 0 -159.5 -65t-58.5 -173v-172z " />
<glyph unicode="q" horiz-adv-x="1107" d="M84 412v147q0 203 99 319.5t280 116.5q238 0 321 -204v180h185v-1321h-224v452q-97 -125 -282 -125q-181 0 -280 116t-99 319zM315 412q0 -130 58 -190t155 -60q100 0 158.5 65t58.5 172v172q0 108 -58.5 173t-158.5 65q-99 0 -156 -62.5t-57 -187.5v-147z" />
<glyph unicode="r" horiz-adv-x="745" d="M145 0v971h199v-211q83 231 340 231v-200h-4q-164 0 -236 -72q-74 -73 -73 -209v-510h-226z" />
<glyph unicode="s" horiz-adv-x="1007" d="M61 289v8h209v-6q0 -63 56 -103.5t170 -40.5q111 0 168 34.5t57 97.5v4q-4 100 -150 118l-206 25q-149 17 -221 90t-72 193v4q0 129 101 205.5t310 76.5q207 0 316.5 -87.5t109.5 -219.5v-8h-209v4q0 61 -57.5 102t-159.5 41t-148 -31.5t-46 -82.5v-4q0 -49 37 -81.5 t133 -43.5l182 -23q292 -34 295 -270v-6q0 -144 -113.5 -226t-324.5 -82t-324 90t-113 222z" />
<glyph unicode="t" horiz-adv-x="768" d="M23 791v180h151v243h227v-243h291v-180h-291v-424q0 -91 37.5 -135t132.5 -44h146v-188h-207q-181 0 -258.5 85.5t-77.5 256.5v449h-151z" />
<glyph unicode="u" horiz-adv-x="1140" d="M123 344v627h225v-588q0 -109 51.5 -166t151.5 -57q103 0 161 65t58 174v572h225v-971h-200v166q-90 -189 -330 -189q-167 0 -254.5 94t-87.5 273z" />
<glyph unicode="v" horiz-adv-x="1046" d="M4 971h248l268 -707l275 707h247l-411 -971h-225z" />
<glyph unicode="w" horiz-adv-x="1511" d="M2 971h227l191 -674l246 674h180l246 -674l190 674h227l-299 -971h-215l-239 649l-240 -649h-213z" />
<glyph unicode="x" horiz-adv-x="1062" d="M33 0l346 489l-330 482h270l216 -340l223 340h254l-338 -477l356 -494h-268l-244 352l-233 -352h-252z" />
<glyph unicode="y" horiz-adv-x="1046" d="M4 971h248l266 -707l275 707h249l-561 -1321h-225l150 346z" />
<glyph unicode="z" horiz-adv-x="931" d="M45 791v180h805v-164l-496 -627h539v-180h-827v143l501 648h-522z" />
<glyph unicode="{" horiz-adv-x="868" d="M92 612v205h86q69 0 94 23.5t25 91.5v276q0 203 93 297t317 94v-194q-118 0 -159.5 -51.5t-41.5 -171.5v-267q0 -87 -33.5 -134t-107.5 -64q74 -19 107.5 -67.5t33.5 -141.5v-223q0 -120 41.5 -172t159.5 -52v-194q-224 0 -317 94t-93 297v231q0 74 -25 98.5t-94 24.5 h-86z" />
<glyph unicode="|" horiz-adv-x="710" d="M244 -137h223v1687h-223v-1687z" />
<glyph unicode="}" horiz-adv-x="868" d="M162 61q118 0 159 51.5t41 172.5v223q0 92 34.5 141t107.5 68q-73 17 -107.5 64t-34.5 134v267q0 121 -41 172t-159 51v194q224 0 316.5 -94t92.5 -297v-276q0 -68 25.5 -91.5t93.5 -23.5h86v-205h-86q-68 0 -93.5 -25t-25.5 -98v-231q0 -203 -92.5 -297t-316.5 -94v194z " />
<glyph unicode="~" horiz-adv-x="794" d="M45 543q111 57 201 57q61 0 150.5 -44t152.5 -44q51 0 95 14t106 49v185q-61 -33 -106 -46.5t-95 -13.5q-63 0 -152.5 44t-150.5 44q-52 0 -96.5 -13.5t-104.5 -47.5v-184z" />
<glyph unicode="&#xa1;" horiz-adv-x="604" d="M174 866q0 129 129 129q64 0 96.5 -33.5t32.5 -95.5q0 -129 -129 -129t-129 129zM180 -383l23 958h196l23 -958h-242z" />
<glyph unicode="&#xa2;" horiz-adv-x="1261" d="M111 635v84q0 416 403 469v166h258v-164q391 -48 391 -393v-37h-245v31q0 194 -275 194q-283 0 -283 -268v-80q0 -275 283 -275q275 0 275 197v29h245v-35q0 -347 -391 -395v-158h-258v160q-204 25 -303.5 141.5t-99.5 333.5z" />
<glyph unicode="&#xa3;" horiz-adv-x="1323" d="M66 0v215h114q264 0 264 154v6q0 63 -51 139h-325v205h180q-86 137 -86 264v16q0 182 137 280.5t389 98.5q268 0 407.5 -112t139.5 -336v-25h-252v25q0 64 -21.5 110t-62 72t-92.5 37.5t-119 11.5q-128 0 -197 -43.5t-69 -126.5v-10q0 -110 106 -238l23 -24h561v-205 h-412q19 -49 19 -96v-8q0 -146 -166 -193h750v-217h-1237z" />
<glyph unicode="&#xa4;" horiz-adv-x="1404" d="M162 260l121 107q-86 103 -86 288v117q0 187 90 291l-125 108l139 148l172 -143q95 26 229 26q127 0 230 -28l174 145l139 -148l-125 -110q86 -103 86 -289v-117q0 -182 -84 -286l123 -109l-139 -147l-168 141q-96 -29 -236 -29q-133 0 -235 27l-166 -139zM440 655 q0 -127 62 -177t200 -50t200.5 50t62.5 177v119q0 125 -61.5 174t-201.5 49q-138 0 -200 -49t-62 -174v-119z" />
<glyph unicode="&#xa5;" horiz-adv-x="1212" d="M10 1354h281l319 -609l324 609h270l-416 -684h289v-117h-344v-170h346v-117h-346v-272h-241v272h-345v117h345v170h-347v117h283z" />
<glyph unicode="&#xa6;" horiz-adv-x="710" d="M244 -139h223v739h-223v-739zM244 809h223v741h-223v-741z" />
<glyph unicode="&#xa7;" horiz-adv-x="1458" d="M113 510v6q0 202 268 256q-170 85 -170 277v6q3 323 520 323q272 0 400.5 -99t128.5 -275v-13h-228v6q0 92 -76 140.5t-225 48.5q-279 0 -282 -142v-4q0 -75 59 -111.5t182 -49.5l268 -27q191 -18 290 -83t100 -194v-8q0 -101 -67 -169t-202 -97q170 -82 170 -274v-4 q0 -164 -133 -245t-387 -81q-271 0 -399.5 99t-128.5 274v12h227v-6q0 -91 75.5 -139t225.5 -48q137 0 210 35t73 105v4q0 76 -59 113t-183 51l-268 24q-191 18 -290 86.5t-99 202.5zM350 547q0 -76 67.5 -111.5t198.5 -48.5l172 -16q163 0 242.5 37.5t79.5 119.5v7 q-1 72 -67 105t-201 46l-174 16q-318 0 -318 -149v-6z" />
<glyph unicode="&#xa9;" d="M86 602v160q0 613 686 616q686 0 686 -616v-160q0 -625 -686 -625q-686 -3 -686 625zM205 612q0 -286 141.5 -413t425.5 -127t425.5 127t141.5 413v140q0 280 -141.5 405t-425.5 125q-285 0 -426 -125t-141 -405v-140zM354 629v106q0 216 104.5 321t319.5 105 q412 -3 412 -373v-10h-184v10q0 207 -228 207q-117 0 -174 -62t-57 -198v-108q0 -140 56.5 -203.5t174.5 -63.5q113 0 170.5 49.5t57.5 159.5v9h184v-9q0 -374 -412 -374q-215 0 -319.5 106.5t-104.5 327.5z" />
<glyph unicode="&#xab;" horiz-adv-x="952" d="M68 578l213 364h194l-188 -362l188 -347h-194zM461 578l213 364h194l-186 -362l186 -347h-194z" />
<glyph unicode="&#xac;" horiz-adv-x="1228" />
<glyph unicode="&#xad;" horiz-adv-x="882" d="M92 541v190h699v-190h-699z" />
<glyph unicode="&#xae;" horiz-adv-x="1073" d="M119 905v101q0 174 109 273.5t309 98.5q199 -1 308 -100t109 -272v-101q0 -172 -109 -270.5t-308 -99.5q-200 -1 -309 98t-109 272zM219 903q0 -136 84 -206t234 -70t233.5 69.5t83.5 206.5v101q0 138 -83.5 210t-233.5 72q-151 0 -234.5 -70.5t-83.5 -207.5v-105z M360 721v487h199q170 0 170 -131v-45q0 -92 -86 -121l98 -190h-104l-80 180h-4h-96v-180h-97zM457 969h78q54 0 78 16.5t24 61.5v18q0 39 -23.5 53.5t-76.5 14.5h-80v-164z" />
<glyph unicode="&#xb0;" horiz-adv-x="765" d="M59 1012v59q0 138 84.5 222.5t239.5 84.5t238.5 -84.5t83.5 -222.5v-59q0 -137 -83.5 -221t-238.5 -84t-239.5 84t-84.5 221zM225 1012q0 -76 39 -117t119 -41q78 0 117 41.5t39 116.5v63q0 75 -39 116.5t-117 41.5q-80 0 -119 -41t-39 -117v-63z" />
<glyph unicode="&#xb1;" horiz-adv-x="935" d="M88 215v180h760v-180h-760zM96 707v174h285v213h178v-213h283v-174h-285v-211h-178v211h-283z" />
<glyph unicode="&#xb6;" horiz-adv-x="1693" d="M78 895v4q0 228 122 341.5t378 113.5h872v-1540h-229v1335h-236v-1335h-229v620h-178q-256 0 -378 115.5t-122 345.5zM322 895q0 -123 55 -189.5t190 -66.5h189v510h-189q-133 0 -189 -65.5t-56 -184.5v-4z" />
<glyph unicode="&#xb7;" horiz-adv-x="507" d="M125 657q0 129 129 129t129 -129q0 -127 -129 -127t-129 127z" />
<glyph unicode="&#xbb;" horiz-adv-x="952" d="M82 233l188 347l-188 362h194l213 -364l-213 -345h-194zM477 233l187 347l-187 362h195l213 -364l-213 -345h-195z" />
<glyph unicode="&#xbc;" horiz-adv-x="1398" d="M-20 1303l202 47h117v-678h-145v553l-146 -35zM76 0l901 1354h217l-901 -1354h-217zM688 123v100l426 455h156v-451h114v-104h-114v-123h-137v123h-445zM821 227h312v324z" />
<glyph unicode="&#xbd;" horiz-adv-x="1462" d="M-20 1303l202 47h117v-678h-145v553l-146 -35zM27 0l901 1354h215l-899 -1354h-217zM768 406v16q0 127 85 197.5t243 70.5q293 0 293 -209v-10q0 -75 -49.5 -136.5t-157.5 -123.5l-148 -80h416v-131h-649v121l274 151q87 53 124.5 95.5t37.5 91.5v4q0 47 -37 74.5 t-110 27.5q-172 0 -172 -145v-14h-150z" />
<glyph unicode="&#xbe;" horiz-adv-x="1636" d="M37 903v4h147v-4q0 -115 181 -115q82 0 124.5 25t42.5 70v4q0 40 -33.5 57t-105.5 17h-149v110h143q129 0 129 78v4q0 88 -143 88q-82 0 -127 -28.5t-45 -82.5v-4h-148v7q0 107 83.5 170t246.5 63q285 0 285 -180v-8q0 -54 -34 -96.5t-99 -63.5q73 -17 111 -58.5 t38 -101.5v-6q0 -90 -80.5 -139t-236.5 -49q-163 0 -246.5 61.5t-83.5 177.5zM326 0l901 1354h215l-899 -1354h-217zM926 123v100l426 455h155v-451h115v-104h-115v-123h-137v123h-444zM1059 227h311v324z" />
<glyph unicode="&#xbf;" horiz-adv-x="1177" d="M80 -31q0 159 84.5 260.5t267.5 178.5l103 43v172h223v-283l-199 -80q-118 -58 -172.5 -116t-54.5 -146v-10q0 -89 58.5 -139t172.5 -50q119 0 187 63t71 181v16h244v-14q-2 -211 -141 -332t-383 -121q-223 0 -342 97.5t-119 265.5v14zM510 868q0 125 135 125 q137 0 137 -125q0 -123 -137 -123q-135 0 -135 123z" />
<glyph unicode="&#xc0;" horiz-adv-x="1355" d="M16 0l539 1356h246l538 -1356h-235l-107 274h-639l-106 -274h-236zM352 1790h219l242 -305h-197zM432 463h492l-246 629z" />
<glyph unicode="&#xc1;" horiz-adv-x="1355" d="M16 0l539 1356h246l538 -1356h-235l-107 274h-639l-106 -274h-236zM432 463h492l-246 629zM559 1485l250 305h219l-274 -305h-195z" />
<glyph unicode="&#xc2;" horiz-adv-x="1355" d="M16 0l539 1356h246l538 -1356h-235l-107 274h-639l-106 -274h-236zM326 1454l254 305h198l254 -305h-186l-168 197l-168 -197h-184zM432 463h492l-246 629z" />
<glyph unicode="&#xc3;" horiz-adv-x="1355" d="M16 0l539 1356h246l538 -1356h-235l-107 274h-639l-106 -274h-236zM377 1548v148q51 33 86.5 46t85.5 13q55 0 132 -37t128 -37q83 0 174 62v-148q-47 -33 -85.5 -47t-90.5 -14q-57 0 -134 38t-126 38q-43 0 -79.5 -13.5t-90.5 -48.5zM432 463h492l-246 629z" />
<glyph unicode="&#xc4;" horiz-adv-x="1355" d="M16 0l539 1356h246l538 -1356h-235l-107 274h-639l-106 -274h-236zM360 1661q0 115 111 115q109 0 109 -115q0 -113 -109 -113q-111 0 -111 113zM432 463h492l-246 629zM778 1661q0 115 111 115q108 0 108 -115q0 -113 -108 -113q-111 0 -111 113z" />
<glyph unicode="&#xc5;" horiz-adv-x="1355" d="M16 0l539 1356h246l538 -1356h-235l-107 274h-639l-106 -274h-236zM428 1642q-3 193 252 193q121 0 188.5 -47t67.5 -146q0 -98 -67.5 -144t-188.5 -46q-252 0 -252 190zM432 463h492l-246 629zM553 1642q0 -98 127 -98q64 0 96.5 26t32.5 72q0 101 -129 101 q-127 0 -127 -101z" />
<glyph unicode="&#xc6;" horiz-adv-x="1945" d="M-14 0l649 1356h328v-2h897v-215h-709l12 -361h584v-194h-576l13 -367h676v-217h-912l-8 274h-584l-131 -274h-239zM446 465h488l-23 674h-145z" />
<glyph unicode="&#xc7;" horiz-adv-x="1490" d="M115 604v156q0 312 158 465t483 153q633 0 633 -524v-14h-246v14q-1 166 -97.5 241.5t-289.5 75.5q-202 0 -299 -96t-97 -313v-160q0 -223 97.5 -321.5t298.5 -98.5q194 0 290.5 76t96.5 244v12h246v-12q0 -495 -566 -525l-37 -81h15q136 0 197 -37t61 -121 q0 -98 -66.5 -138t-206.5 -40h-247v127h198q83 0 114.5 14t31.5 47q0 35 -33 46t-105 11h-131v76l43 99q-275 23 -408.5 177t-133.5 447z" />
<glyph unicode="&#xc8;" horiz-adv-x="1261" d="M162 0v1354h1014v-215h-773v-361h662v-194h-662v-367h773v-217h-1014zM344 1790h219l242 -305h-197z" />
<glyph unicode="&#xc9;" horiz-adv-x="1261" d="M162 0v1354h1014v-215h-773v-361h662v-194h-662v-367h773v-217h-1014zM549 1485l250 305h219l-275 -305h-194z" />
<glyph unicode="&#xca;" horiz-adv-x="1261" d="M162 0v1354h1014v-215h-773v-361h662v-194h-662v-367h773v-217h-1014zM315 1454l254 305h199l254 -305h-186l-168 197l-168 -197h-185z" />
<glyph unicode="&#xcb;" horiz-adv-x="1261" d="M162 0v1354h1014v-215h-773v-361h662v-194h-662v-367h773v-217h-1014zM350 1661q0 115 111 115q108 0 108 -115q0 -113 -108 -113q-111 0 -111 113zM768 1661q0 115 111 115q108 0 108 -115q0 -113 -108 -113q-111 0 -111 113z" />
<glyph unicode="&#xcc;" horiz-adv-x="565" d="M-43 1790h219l242 -305h-197zM162 0v1354h241v-1354h-241z" />
<glyph unicode="&#xcd;" horiz-adv-x="565" d="M162 0v1354h241v-1354h-241zM164 1485l250 305h219l-275 -305h-194z" />
<glyph unicode="&#xce;" horiz-adv-x="565" d="M-72 1454l254 305h199l254 -305h-186l-168 197l-168 -197h-185zM162 0v1354h241v-1354h-241z" />
<glyph unicode="&#xcf;" horiz-adv-x="565" d="M-37 1661q0 115 111 115q108 0 108 -115q0 -113 -108 -113q-111 0 -111 113zM162 0v1354h241v-1354h-241zM381 1661q0 115 111 115q108 0 108 -115q0 -113 -108 -113q-111 0 -111 113z" />
<glyph unicode="&#xd0;" horiz-adv-x="1576" d="M96 586v190h135v578h574q335 0 496 -148t161 -461v-127q0 -319 -161 -468.5t-496 -149.5h-574v586h-135zM473 217h340q206 0 305 93.5t99 305.5v132q0 207 -99.5 299t-304.5 92h-340v-363h275v-190h-275v-369z" />
<glyph unicode="&#xd1;" horiz-adv-x="1517" d="M162 0v1356h284l678 -1004v1004h232v-1356h-295l-666 999v-999h-233zM457 1548v148q51 33 86.5 46t85.5 13q55 0 132 -37t128 -37q83 0 174 62v-148q-47 -33 -85.5 -47t-90.5 -14q-57 0 -134 38t-126 38q-43 0 -79.5 -13.5t-90.5 -48.5z" />
<glyph unicode="&#xd2;" d="M115 602v160q0 309 162 461t495 153q333 0 495.5 -152.5t162.5 -461.5v-160q0 -315 -162.5 -468.5t-495.5 -153.5q-333 -1 -495 153t-162 469zM367 612q0 -220 100 -318.5t305 -98.5q206 0 306 98.5t100 318.5v140q0 216 -99.5 311.5t-306.5 95.5t-306 -95.5t-99 -311.5 v-140zM446 1790h220l241 -305h-196z" />
<glyph unicode="&#xd3;" d="M115 602v160q0 309 162 461t495 153q333 0 495.5 -152.5t162.5 -461.5v-160q0 -315 -162.5 -468.5t-495.5 -153.5q-333 -1 -495 153t-162 469zM367 612q0 -220 100 -318.5t305 -98.5q206 0 306 98.5t100 318.5v140q0 216 -99.5 311.5t-306.5 95.5t-306 -95.5t-99 -311.5 v-140zM651 1485l250 305h219l-274 -305h-195z" />
<glyph unicode="&#xd4;" d="M115 602v160q0 309 162 461t495 153q333 0 495.5 -152.5t162.5 -461.5v-160q0 -315 -162.5 -468.5t-495.5 -153.5q-333 -1 -495 153t-162 469zM367 612q0 -220 100 -318.5t305 -98.5q206 0 306 98.5t100 318.5v140q0 216 -99.5 311.5t-306.5 95.5t-306 -95.5t-99 -311.5 v-140zM418 1454l254 305h198l254 -305h-186l-168 197l-168 -197h-184z" />
<glyph unicode="&#xd5;" d="M115 602v160q0 309 162 461t495 153q333 0 495.5 -152.5t162.5 -461.5v-160q0 -315 -162.5 -468.5t-495.5 -153.5q-333 -1 -495 153t-162 469zM367 612q0 -220 100 -318.5t305 -98.5q206 0 306 98.5t100 318.5v140q0 216 -99.5 311.5t-306.5 95.5t-306 -95.5t-99 -311.5 v-140zM471 1548v148q51 33 86.5 46t85.5 13q55 0 132 -37t128 -37q83 0 174 62v-148q-47 -33 -85.5 -47t-90.5 -14q-57 0 -134 38t-126 38q-43 0 -79.5 -13.5t-90.5 -48.5z" />
<glyph unicode="&#xd6;" d="M115 602v160q0 309 162 461t495 153q333 0 495.5 -152.5t162.5 -461.5v-160q0 -315 -162.5 -468.5t-495.5 -153.5q-333 -1 -495 153t-162 469zM367 612q0 -220 100 -318.5t305 -98.5q206 0 306 98.5t100 318.5v140q0 216 -99.5 311.5t-306.5 95.5t-306 -95.5t-99 -311.5 v-140zM453 1661q0 115 110 115q109 0 109 -115q0 -113 -109 -113q-110 0 -110 113zM870 1661q0 115 111 115q109 0 109 -115q0 -113 -109 -113q-111 0 -111 113z" />
<glyph unicode="&#xd7;" horiz-adv-x="864" d="M104 444l209 211l-209 213l123 119l205 -205l205 205l123 -119l-209 -213l209 -211l-127 -118l-201 204l-203 -204z" />
<glyph unicode="&#xd8;" d="M115 602v160q0 309 162 461t495 153q250 0 404 -86l65 76l139 -121l-65 -76q115 -144 115 -407v-160q0 -315 -162.5 -468.5t-495.5 -153.5q-252 0 -407 88l-78 -93l-140 121l80 92q-112 147 -112 414zM367 612q0 -137 36 -219l615 715q-92 51 -246 51q-207 0 -306 -95.5 t-99 -311.5v-140zM522 250q89 -55 250 -55q206 0 306 98.5t100 318.5v140q0 133 -37 217z" />
<glyph unicode="&#xd9;" d="M135 625v729h252v-748q0 -219 95 -316t290 -97t290 97t95 316v748h252v-729q0 -332 -156.5 -490t-480.5 -160q-323 0 -480 159t-157 491zM446 1790h220l241 -305h-196z" />
<glyph unicode="&#xda;" d="M135 625v729h252v-748q0 -219 95 -316t290 -97t290 97t95 316v748h252v-729q0 -332 -156.5 -490t-480.5 -160q-323 0 -480 159t-157 491zM651 1485l250 305h219l-274 -305h-195z" />
<glyph unicode="&#xdb;" d="M135 625v729h252v-748q0 -219 95 -316t290 -97t290 97t95 316v748h252v-729q0 -332 -156.5 -490t-480.5 -160q-323 0 -480 159t-157 491zM418 1454l254 305h198l254 -305h-186l-168 197l-168 -197h-184z" />
<glyph unicode="&#xdc;" d="M135 625v729h252v-748q0 -219 95 -316t290 -97t290 97t95 316v748h252v-729q0 -332 -156.5 -490t-480.5 -160q-323 0 -480 159t-157 491zM453 1661q0 115 110 115q109 0 109 -115q0 -113 -109 -113q-110 0 -110 113zM870 1661q0 115 111 115q109 0 109 -115 q0 -113 -109 -113q-111 0 -111 113z" />
<glyph unicode="&#xdd;" horiz-adv-x="1353" d="M45 1354h291l344 -557l350 557h281l-506 -758v-602h-242v588zM559 1485l250 305h219l-274 -305h-195z" />
<glyph unicode="&#xde;" horiz-adv-x="1280" d="M162 0v1354h241v-236h340q254 0 372 -102t118 -311v-5q0 -211 -117.5 -315t-372.5 -104h-340v-281h-241zM403 485h340q134 0 190 56.5t56 158.5v5q0 98 -56.5 153t-189.5 55h-340v-428z" />
<glyph unicode="&#xdf;" horiz-adv-x="1222" d="M127 0v920q0 258 125.5 377.5t351.5 119.5q106 0 184 -17.5t137 -57.5t89 -108.5t30 -166.5v-16q0 -119 -49 -203.5t-143 -120.5q140 -23 213.5 -101.5t73.5 -228.5v-16q0 -106 -31.5 -181t-92 -118t-138.5 -62.5t-181 -19.5h-207v188h183q114 0 177.5 50t63.5 170v14 q0 112 -64 154t-200 42h-155v173h106q219 0 219 215v18q0 209 -215 209q-114 0 -182 -64.5t-68 -201.5v-967h-227z" />
<glyph unicode="&#xe0;" horiz-adv-x="1005" d="M51 258v10q0 131 85.5 205t254.5 74h289v55q0 207 -184 207q-100 0 -145.5 -49t-45.5 -123v-10h-211v12q0 71 22.5 133t68 113t125.5 80.5t186 29.5q405 0 405 -399v-596h-207v115q-108 -138 -313 -138h-10q-153 0 -236.5 74t-83.5 207zM170 1407h219l242 -305h-197z M252 272q0 -65 38 -96t122 -31h8q74 0 130 21.5t93 78t37 144.5v4h-270q-79 0 -118.5 -31.5t-39.5 -82.5v-7z" />
<glyph unicode="&#xe1;" horiz-adv-x="1005" d="M51 258v10q0 131 85.5 205t254.5 74h289v55q0 207 -184 207q-100 0 -145.5 -49t-45.5 -123v-10h-211v12q0 71 22.5 133t68 113t125.5 80.5t186 29.5q405 0 405 -399v-596h-207v115q-108 -138 -313 -138h-10q-153 0 -236.5 74t-83.5 207zM252 272q0 -65 38 -96t122 -31h8 q74 0 130 21.5t93 78t37 144.5v4h-270q-79 0 -118.5 -31.5t-39.5 -82.5v-7zM377 1102l250 305h219l-275 -305h-194z" />
<glyph unicode="&#xe2;" horiz-adv-x="1005" d="M51 258v10q0 131 85.5 205t254.5 74h289v55q0 207 -184 207q-100 0 -145.5 -49t-45.5 -123v-10h-211v12q0 71 22.5 133t68 113t125.5 80.5t186 29.5q405 0 405 -399v-596h-207v115q-108 -138 -313 -138h-10q-153 0 -236.5 74t-83.5 207zM141 1112l254 305h199l254 -305 h-184l-168 199l-170 -199h-185zM252 272q0 -65 38 -96t122 -31h8q74 0 130 21.5t93 78t37 144.5v4h-270q-79 0 -118.5 -31.5t-39.5 -82.5v-7z" />
<glyph unicode="&#xe3;" horiz-adv-x="1005" d="M51 258v10q0 131 85.5 205t254.5 74h289v55q0 207 -184 207q-100 0 -145.5 -49t-45.5 -123v-10h-211v12q0 71 22.5 133t68 113t125.5 80.5t186 29.5q405 0 405 -399v-596h-207v115q-108 -138 -313 -138h-10q-153 0 -236.5 74t-83.5 207zM195 1165v148q51 33 86.5 46 t85.5 13q55 0 132 -37t128 -37q83 0 174 62v-148q-47 -33 -85.5 -47t-90.5 -14q-57 0 -134 38t-126 38q-43 0 -79.5 -13.5t-90.5 -48.5zM252 272q0 -65 38 -96t122 -31h8q74 0 130 21.5t93 78t37 144.5v4h-270q-79 0 -118.5 -31.5t-39.5 -82.5v-7z" />
<glyph unicode="&#xe4;" horiz-adv-x="1005" d="M51 258v10q0 131 85.5 205t254.5 74h289v55q0 207 -184 207q-100 0 -145.5 -49t-45.5 -123v-10h-211v12q0 71 22.5 133t68 113t125.5 80.5t186 29.5q405 0 405 -399v-596h-207v115q-108 -138 -313 -138h-10q-153 0 -236.5 74t-83.5 207zM176 1278q0 115 111 115 q108 0 108 -115q0 -113 -108 -113q-111 0 -111 113zM252 272q0 -65 38 -96t122 -31h8q74 0 130 21.5t93 78t37 144.5v4h-270q-79 0 -118.5 -31.5t-39.5 -82.5v-7zM594 1278q0 115 111 115q108 0 108 -115q0 -113 -108 -113q-111 0 -111 113z" />
<glyph unicode="&#xe5;" horiz-adv-x="1005" d="M51 258v10q0 131 85.5 205t254.5 74h289v55q0 207 -184 207q-100 0 -145.5 -49t-45.5 -123v-10h-211v12q0 71 22.5 133t68 113t125.5 80.5t186 29.5q405 0 405 -399v-596h-207v115q-108 -138 -313 -138h-10q-153 0 -236.5 74t-83.5 207zM246 1260q-3 192 252 192 q256 0 256 -192q0 -98 -67.5 -144.5t-188.5 -46.5q-252 0 -252 191zM252 272q0 -65 38 -96t122 -31h8q74 0 130 21.5t93 78t37 144.5v4h-270q-79 0 -118.5 -31.5t-39.5 -82.5v-7zM371 1260q0 -99 127 -99q64 0 96.5 26.5t32.5 72.5q0 100 -129 100q-127 0 -127 -100z" />
<glyph unicode="&#xe6;" horiz-adv-x="1644" d="M51 250v16q0 129 79.5 200t242.5 71h307v36q0 236 -186 236q-97 0 -145 -49t-48 -121v-10h-211v10q0 73 23 135.5t70 112.5t126.5 79t184.5 29q223 0 321 -118q118 118 318 118q216 0 325 -113t109 -309v-153h-656v-37q0 -100 59 -160.5t175 -60.5q97 0 149 44t52 126v6 h217v-10q0 -158 -115 -254.5t-322 -96.5q-254 0 -362 173q-53 -91 -154 -132t-225 -41h-31q-303 0 -303 273zM254 256q0 -62 39.5 -97.5t112.5 -35.5h26q107 0 177.5 55t70.5 170v43h-252q-174 0 -174 -121v-14zM911 565h430v31q0 97 -52.5 156t-155.5 59t-162.5 -60 t-59.5 -155v-31z" />
<glyph unicode="&#xe7;" horiz-adv-x="1030" d="M84 391v191q0 183 113 298t329 115q112 0 196.5 -33t133 -90.5t72.5 -127t24 -150.5v-27h-221v27q0 98 -54.5 157.5t-152.5 59.5q-101 0 -155 -63t-54 -166v-191q0 -103 54 -166t155 -63q97 0 150 52.5t53 141.5v23h221v-31q-1 -73 -23 -136t-66.5 -116t-121 -85 t-178.5 -36l-29 -67q130 0 189 -37t59 -117q0 -91 -66.5 -128.5t-207.5 -37.5h-185v117h138q83 0 113 13.5t30 48.5q0 34 -33.5 45.5t-109.5 11.5h-72v74l33 86q-164 28 -249 138t-85 269z" />
<glyph unicode="&#xe8;" horiz-adv-x="1050" d="M84 401v172q0 194 116 308t332 114q217 0 329 -113.5t112 -308.5v-155h-658v-27q0 -103 57.5 -166t164.5 -63q102 0 157.5 48.5t55.5 123.5v6h219v-8q0 -160 -115 -257.5t-322 -97.5q-217 0 -332.5 113.5t-115.5 310.5zM201 1407h219l242 -305h-197zM315 557h433v35 q0 99 -56 159t-160 60q-103 0 -160 -60.5t-57 -158.5v-35z" />
<glyph unicode="&#xe9;" horiz-adv-x="1050" d="M84 401v172q0 194 116 308t332 114q217 0 329 -113.5t112 -308.5v-155h-658v-27q0 -103 57.5 -166t164.5 -63q102 0 157.5 48.5t55.5 123.5v6h219v-8q0 -160 -115 -257.5t-322 -97.5q-217 0 -332.5 113.5t-115.5 310.5zM315 557h433v35q0 99 -56 159t-160 60 q-103 0 -160 -60.5t-57 -158.5v-35zM408 1102l249 305h220l-275 -305h-194z" />
<glyph unicode="&#xea;" horiz-adv-x="1050" d="M84 401v172q0 194 116 308t332 114q217 0 329 -113.5t112 -308.5v-155h-658v-27q0 -103 57.5 -166t164.5 -63q102 0 157.5 48.5t55.5 123.5v6h219v-8q0 -160 -115 -257.5t-322 -97.5q-217 0 -332.5 113.5t-115.5 310.5zM172 1112l254 305h199l254 -305h-185l-168 199 l-170 -199h-184zM315 557h433v35q0 99 -56 159t-160 60q-103 0 -160 -60.5t-57 -158.5v-35z" />
<glyph unicode="&#xeb;" horiz-adv-x="1050" d="M84 401v172q0 194 116 308t332 114q217 0 329 -113.5t112 -308.5v-155h-658v-27q0 -103 57.5 -166t164.5 -63q102 0 157.5 48.5t55.5 123.5v6h219v-8q0 -160 -115 -257.5t-322 -97.5q-217 0 -332.5 113.5t-115.5 310.5zM207 1278q0 115 110 115q109 0 109 -115 q0 -113 -109 -113q-110 0 -110 113zM315 557h433v35q0 99 -56 159t-160 60q-103 0 -160 -60.5t-57 -158.5v-35zM625 1278q0 115 110 115q109 0 109 -115q0 -113 -109 -113q-110 0 -110 113z" />
<glyph unicode="&#xec;" horiz-adv-x="512" d="M-70 1407h220l241 -305h-196zM145 0v971h226v-971h-226z" />
<glyph unicode="&#xed;" horiz-adv-x="512" d="M137 1102l250 305h219l-274 -305h-195zM145 0v971h226v-971h-226z" />
<glyph unicode="&#xee;" horiz-adv-x="512" d="M-96 1112l254 305h198l254 -305h-184l-168 199l-170 -199h-184zM145 0v971h226v-971h-226z" />
<glyph unicode="&#xef;" horiz-adv-x="512" d="M-61 1278q0 115 110 115q109 0 109 -115q0 -113 -109 -113q-110 0 -110 113zM145 0v971h226v-971h-226zM356 1278q0 115 111 115q108 0 108 -115q0 -113 -108 -113q-111 0 -111 113z" />
<glyph unicode="&#xf0;" horiz-adv-x="1146" d="M86 408v28q0 189 105.5 293.5t302.5 104.5q227 0 325 -154v192q0 91 -20 150l-258 -113l-54 101l250 110q-74 68 -223 68h-301v205h332q294 0 411 -176l140 61l51 -102l-141 -62q34 -101 34 -250v-375q0 -248 -131 -380t-374 -132q-449 0 -449 431zM315 397 q0 -237 226 -241q113 -2 182.5 60.5t69.5 176.5v21q0 123 -69 186.5t-181 63.5q-107 0 -167.5 -57.5t-60.5 -178.5v-31z" />
<glyph unicode="&#xf1;" horiz-adv-x="1165" d="M145 0v971h199v-187q90 211 342 211q167 0 255.5 -94.5t88.5 -271.5v-629h-225v590q0 108 -53.5 164.5t-155.5 56.5q-106 0 -165.5 -64t-59.5 -165v-582h-226zM283 1165v148q51 33 86.5 46t85.5 13q55 0 132 -37t128 -37q83 0 174 62v-148q-47 -33 -85.5 -47t-90.5 -14 q-57 0 -134 38t-126 38q-43 0 -79.5 -13.5t-90.5 -48.5z" />
<glyph unicode="&#xf2;" horiz-adv-x="1097" d="M84 416v139q0 203 117.5 321t347.5 119q229 0 347 -118.5t118 -321.5v-139q0 -203 -117.5 -321t-347.5 -118t-347.5 118t-117.5 321zM223 1407h219l242 -305h-197zM315 401q0 -110 60.5 -174.5t173.5 -64.5t172 64.5t59 174.5v166q0 112 -59 178t-172 66t-173.5 -66 t-60.5 -178v-166z" />
<glyph unicode="&#xf3;" horiz-adv-x="1097" d="M84 416v139q0 203 117.5 321t347.5 119q229 0 347 -118.5t118 -321.5v-139q0 -203 -117.5 -321t-347.5 -118t-347.5 118t-117.5 321zM315 401q0 -110 60.5 -174.5t173.5 -64.5t172 64.5t59 174.5v166q0 112 -59 178t-172 66t-173.5 -66t-60.5 -178v-166zM430 1102 l250 305h219l-274 -305h-195z" />
<glyph unicode="&#xf4;" horiz-adv-x="1097" d="M84 416v139q0 203 117.5 321t347.5 119q229 0 347 -118.5t118 -321.5v-139q0 -203 -117.5 -321t-347.5 -118t-347.5 118t-117.5 321zM195 1112l254 305h198l254 -305h-184l-168 199l-170 -199h-184zM315 401q0 -110 60.5 -174.5t173.5 -64.5t172 64.5t59 174.5v166 q0 112 -59 178t-172 66t-173.5 -66t-60.5 -178v-166z" />
<glyph unicode="&#xf5;" horiz-adv-x="1097" d="M84 416v139q0 203 117.5 321t347.5 119q229 0 347 -118.5t118 -321.5v-139q0 -203 -117.5 -321t-347.5 -118t-347.5 118t-117.5 321zM248 1165v148q51 33 86.5 46t85.5 13q55 0 132 -37t128 -37q83 0 174 62v-148q-47 -33 -85.5 -47t-90.5 -14q-57 0 -134 38t-126 38 q-43 0 -79.5 -13.5t-90.5 -48.5zM315 401q0 -110 60.5 -174.5t173.5 -64.5t172 64.5t59 174.5v166q0 112 -59 178t-172 66t-173.5 -66t-60.5 -178v-166z" />
<glyph unicode="&#xf6;" horiz-adv-x="1097" d="M84 416v139q0 203 117.5 321t347.5 119q229 0 347 -118.5t118 -321.5v-139q0 -203 -117.5 -321t-347.5 -118t-347.5 118t-117.5 321zM229 1278q0 115 111 115q109 0 109 -115q0 -113 -109 -113q-111 0 -111 113zM315 401q0 -110 60.5 -174.5t173.5 -64.5t172 64.5 t59 174.5v166q0 112 -59 178t-172 66t-173.5 -66t-60.5 -178v-166zM647 1278q0 115 111 115q108 0 108 -115q0 -113 -108 -113q-111 0 -111 113z" />
<glyph unicode="&#xf7;" horiz-adv-x="892" d="M74 580v180h745v-180h-745zM334 367q0 112 115 112q114 0 114 -112q0 -115 -114 -115q-115 0 -115 115zM334 983q0 115 115 115q114 0 114 -115t-114 -115q-115 0 -115 115z" />
<glyph unicode="&#xf8;" horiz-adv-x="1097" d="M84 416v139q0 203 117.5 321t347.5 119q178 0 293 -73l65 79l74 -65l-66 -80q99 -114 99 -301v-139q0 -203 -117.5 -321t-347.5 -118q-176 0 -293 74l-70 -84l-75 62l71 88q-98 110 -98 299zM315 401q0 -49 17 -102l377 459q-59 53 -160 53q-113 0 -173.5 -66t-60.5 -178 v-166zM389 215q59 -53 160 -53q113 0 172 64.5t59 174.5v166q0 55 -16 105z" />
<glyph unicode="&#xf9;" horiz-adv-x="1140" d="M123 344v627h225v-588q0 -109 51.5 -166t151.5 -57q103 0 161 65t58 174v572h225v-971h-200v166q-90 -189 -330 -189q-167 0 -254.5 94t-87.5 273zM238 1407h219l241 -305h-196z" />
<glyph unicode="&#xfa;" horiz-adv-x="1140" d="M123 344v627h225v-588q0 -109 51.5 -166t151.5 -57q103 0 161 65t58 174v572h225v-971h-200v166q-90 -189 -330 -189q-167 0 -254.5 94t-87.5 273zM444 1102l250 305h219l-274 -305h-195z" />
<glyph unicode="&#xfb;" horiz-adv-x="1140" d="M123 344v627h225v-588q0 -109 51.5 -166t151.5 -57q103 0 161 65t58 174v572h225v-971h-200v166q-90 -189 -330 -189q-167 0 -254.5 94t-87.5 273zM209 1112l254 305h199l253 -305h-184l-168 199l-170 -199h-184z" />
<glyph unicode="&#xfc;" horiz-adv-x="1140" d="M123 344v627h225v-588q0 -109 51.5 -166t151.5 -57q103 0 161 65t58 174v572h225v-971h-200v166q-90 -189 -330 -189q-167 0 -254.5 94t-87.5 273zM244 1278q0 115 110 115q109 0 109 -115q0 -113 -109 -113q-110 0 -110 113zM662 1278q0 115 110 115q109 0 109 -115 q0 -113 -109 -113q-110 0 -110 113z" />
<glyph unicode="&#xfd;" horiz-adv-x="1046" d="M4 971h248l266 -707l275 707h249l-561 -1321h-225l150 346zM403 1102l250 305h219l-274 -305h-195z" />
<glyph unicode="&#xfe;" horiz-adv-x="1107" d="M137 -350v1743h209v-555q92 157 297 157q182 0 280.5 -116t98.5 -320v-147q0 -204 -98.5 -319.5t-280.5 -115.5q-184 0 -281 125v-452h-225zM362 399q0 -107 59 -172t159 -65q97 0 155 64t58 186v147q0 125 -57.5 187.5t-155.5 62.5q-101 0 -159.5 -65t-58.5 -173v-172z " />
<glyph unicode="&#xff;" horiz-adv-x="1046" d="M4 971h248l266 -707l275 707h249l-561 -1321h-225l150 346zM205 1278q0 115 110 115q109 0 109 -115q0 -113 -109 -113q-110 0 -110 113zM623 1278q0 115 110 115q109 0 109 -115q0 -113 -109 -113q-110 0 -110 113z" />
<glyph unicode="&#x152;" horiz-adv-x="2119" d="M115 602v160q0 298 171.5 445t522.5 147h1225v-215h-746v-361h633v-194h-633v-367h746v-217h-1225q-352 0 -523 147.5t-171 454.5zM367 612q0 -211 108.5 -303t333.5 -92h240v922h-240q-225 0 -333.5 -91.5t-108.5 -295.5v-140z" />
<glyph unicode="&#x153;" horiz-adv-x="1751" d="M84 416v139q0 203 117.5 321t347.5 119q227 0 348 -118q115 118 336 118q217 0 328.5 -113.5t111.5 -308.5v-155h-657v-27q0 -103 57 -166t164 -63q102 0 157.5 48.5t55.5 123.5v6h219v-8q0 -160 -115 -257.5t-321 -97.5q-218 0 -338 117q-120 -117 -346 -117 q-230 0 -347.5 118t-117.5 321zM315 401q0 -110 60.5 -174.5t173.5 -64.5t172 64.5t59 174.5v166q0 112 -59 178t-172 66t-173.5 -66t-60.5 -178v-166zM1016 557h432v35q0 99 -55.5 159t-159.5 60q-103 0 -160 -60.5t-57 -158.5v-35z" />
<glyph unicode="&#x178;" horiz-adv-x="1353" d="M45 1354h291l344 -557l350 557h281l-506 -758v-602h-242v588zM358 1661q0 115 111 115q109 0 109 -115q0 -113 -109 -113q-111 0 -111 113zM776 1661q0 115 111 115q108 0 108 -115q0 -113 -108 -113q-111 0 -111 113z" />
<glyph unicode="&#x2000;" horiz-adv-x="917" />
<glyph unicode="&#x2001;" horiz-adv-x="1835" />
<glyph unicode="&#x2002;" horiz-adv-x="917" />
<glyph unicode="&#x2003;" horiz-adv-x="1835" />
<glyph unicode="&#x2004;" horiz-adv-x="611" />
<glyph unicode="&#x2005;" horiz-adv-x="458" />
<glyph unicode="&#x2006;" horiz-adv-x="305" />
<glyph unicode="&#x2007;" horiz-adv-x="305" />
<glyph unicode="&#x2008;" horiz-adv-x="229" />
<glyph unicode="&#x2009;" horiz-adv-x="367" />
<glyph unicode="&#x200a;" horiz-adv-x="101" />
<glyph unicode="&#x2010;" horiz-adv-x="882" d="M92 541v190h699v-190h-699z" />
<glyph unicode="&#x2011;" horiz-adv-x="882" d="M92 541v190h699v-190h-699z" />
<glyph unicode="&#x2012;" horiz-adv-x="882" d="M92 541v190h699v-190h-699z" />
<glyph unicode="&#x2013;" horiz-adv-x="1191" d="M92 541v190h1008v-190h-1008z" />
<glyph unicode="&#x2014;" horiz-adv-x="1607" d="M92 541v190h1424v-190h-1424z" />
<glyph unicode="&#x2018;" horiz-adv-x="544" d="M129 934l129 428h150l-76 -428h-203z" />
<glyph unicode="&#x2019;" horiz-adv-x="544" d="M137 926l76 428h203l-129 -428h-150z" />
<glyph unicode="&#x201a;" horiz-adv-x="514" d="M57 -324l107 476h217l-158 -476h-166z" />
<glyph unicode="&#x201c;" horiz-adv-x="927" d="M129 934l129 428h150l-76 -428h-203zM512 934l129 428h150l-76 -428h-203z" />
<glyph unicode="&#x201d;" horiz-adv-x="927" d="M137 926l76 428h203l-129 -428h-150zM520 926l76 428h203l-129 -428h-150z" />
<glyph unicode="&#x201e;" horiz-adv-x="868" d="M57 -324l107 476h217l-158 -476h-166zM412 -324l104 476h219l-160 -476h-163z" />
<glyph unicode="&#x2022;" horiz-adv-x="677" d="M139 700q0 205 209 205q207 0 207 -205q0 -206 -207 -206q-209 0 -209 206z" />
<glyph unicode="&#x2026;" horiz-adv-x="1253" d="M125 104q0 129 129 129t129 -129q0 -127 -129 -127t-129 127zM498 104q0 129 129 129t129 -129q0 -127 -129 -127t-129 127zM870 104q0 129 129 129t129 -129q0 -127 -129 -127t-129 127z" />
<glyph unicode="&#x202f;" horiz-adv-x="367" />
<glyph unicode="&#x2039;" horiz-adv-x="557" d="M68 578l213 364h194l-188 -362l188 -347h-194z" />
<glyph unicode="&#x203a;" horiz-adv-x="557" d="M82 233l188 347l-188 362h194l213 -364l-213 -345h-194z" />
<glyph unicode="&#x205f;" horiz-adv-x="458" />
<glyph unicode="&#x20ac;" horiz-adv-x="1404" d="M55 492v106h144v162h-144v104h146q13 265 150 386.5t403 123.5q277 0 410 -115t134 -360v-57h-249v41q0 148 -73 211t-226 63q-144 0 -217 -65t-82 -228h368v-104h-370v-162h370v-106h-368q12 -166 84.5 -231.5t214.5 -65.5q152 0 225.5 64t73.5 214v41h249v-55 q0 -247 -133.5 -363t-410.5 -116q-266 0 -401 120t-152 392h-146z" />
<glyph unicode="&#x2122;" horiz-adv-x="1843" d="M84 1186v168h627v-168h-215v-481h-197v481h-215zM776 705v649h228l204 -367l205 367h227v-649h-163v425l-220 -376h-98l-217 372v-421h-166z" />
<glyph unicode="&#x25fc;" horiz-adv-x="972" d="M0 0v973h973v-973h-973z" />
</font>
</defs>
</svg>
